<mxfile host="app.diagrams.net" agent="Mozilla/5.0 (Windows NT 10.0; Win64; x64) AppleWebKit/537.36 (KHTML, like Gecko) Chrome/138.0.0.0 Safari/537.36" version="28.0.9">
  <diagram name="第 1 页" id="3mJlpycRYfOWeezHMNUV">
    <mxGraphModel dx="1489" dy="810" grid="1" gridSize="10" guides="1" tooltips="1" connect="1" arrows="1" fold="1" page="1" pageScale="1" pageWidth="827" pageHeight="1169" math="0" shadow="0">
      <root>
        <mxCell id="0" />
        <mxCell id="1" parent="0" />
        <mxCell id="HBajahwB6_Djtj9Em0qe-1" value="" style="shape=image;verticalLabelPosition=bottom;labelBackgroundColor=default;verticalAlign=top;aspect=fixed;imageAspect=0;image=data:image/png,iVBORw0KGgoAAAANSUhEUgAABCcAAAEjCAYAAAF2m1uDAAAAAXNSR0IArs4c6QAAAARnQU1BAACxjwv8YQUAAAAJcEhZcwAAFxEAABcRAcom8z8AAN8bSURBVHhe7P0HtBXFtqiP3/He/d9373v3924Y9517zvEkwzFHTCAq5iwYUEByjpLEgBgAERVFRYIZJCigKEEFyTnHTc5ZokTJaf73V7sbF4veK/Xurr1Wz2/sGrtX6u6qWV0156xZVf8gihKHVgrlLLRSKGehlUI5C60UKXLy5EnnKPeJVKWYP3+++f/yyy9LhQoVzPHWrVvl7rvvlry8PKlUqZL893//t5w6dUq++OILWbFihTz//PPme7B371657rrr5P3335ePP/5Ypk2bJnPmzJEePXpI9+7dnW9lP5GpFIMGDZImTZrI0KFDZdasWfLII4+Y93v16mX+wyWXXCKvvfaa80qkbNmysnz5cpkyZYr06dPHvPfXv/7V/L/nnnukZ8+e0rlzZ5k+fbq88847pmLlAtp9KGehlUI5C60UylmkXSmOHTvmHHmDklYYiT6DZOdORrLfHz9+3Dk6G36b6PMTJ044R96kcu+FnT+ZZcO1k32nKMsurUqxefNm56hw9u/f7xx5g7ZeGFgCiQo/WaVKdG2uO2PGDOeVN4nOP3r06KQVY+fOnc7RmezatUsWLlxYaKX48ccfzf/CPp84caL5v3r1avM/nsOHD8vKlSsT3n+iSkOF+/nnn51XGbQUo0aNco68OXjwoHN0Nvx2woQJzquzGTNmjHOUGSNHjnSOvBk/frxzdDa7d+92jryZNGmSc+TNTz/95BydDaYsjB071vyPB+sGCqt08+bNM3nDavLi6NGjCa8PR44ccY68odK7FCudIllLsGnTJufIm0OHDjlH4UNrkIht27Y5R+GTrGvZuHGjc1RA2pXiiSeeOCPF4+dzmsHYz/AbxFKqVKkzPq9du7bzSQGlS5c+4/N4Yj/z+/mDDz7ovFvAu+++e8bn//7v/y7t27d3PhX505/+dMbn+D9iif2MFI+fz+mWYz8799xznU8KcFsyl6SVolTjPNm8I3HTU1T8+uuvzlEBHTp0cI4KuPjii52jAu69917nqIBx48Y5R8Gzfft256iAZ5991jkqYPHixc5RAY8//rhzVMDs2bOdo+BZt26dc1RA/fr1nSNvklaKB19YIn94ZKbzKlhyqVLEU5wrRbw+lbBSDBq/U+avOiBHjp2UEycT9/dFQS5VimHDhjlHBRTnSuFbp4gHjTg2xePncyyZ2M/Wrl3rfFIA/XLs5/EKVexnpHj8fI5SHPsZJqfLbbfdZiyp2M/37NnjfFoAJnLs5/HEfub38/gKyMMX+3m8Au+7UoRJMutEyYz4ci1WlcK9uUaNGhlLJD6tWbPG83030Td6vR+bgiK+JahYseJppxMU5tgKg0SeWoh3ShbLSlEYyQoWJ44t4r2p8QUdX2nCJJkndseOHc5RAQkrxW0tFsnD+dZHGEqmS5BPM8Qrr8rZFDud4oYbbnCOzubAgQPOkTfJngiI9fEXJfFu5Ndff905KsCmtzXZYFp8uWaVohlvOsVjs+BjIdwvnuIc4xk/XpVVlSKZ0FNpKYIimT6TbEAqSJLpavHlmlWVwjY1a9Z0jpJTvnx5qxaHF/3793eOElNopTh+oqB21eu8yvwPg2Q1Ot6LGE/QT2OiLmDfvn3OUQG//PKLc1RAsqH5IEnWgsaX6xmVokS9+VK700rZuP2ILNtwSMo0X2gqRcsPz/QkBkWySsFoXyKCtlwSET/SGE98JQkT/BQbNmxwXp3Nli1bnKMCUuo+7mi5yDlSPvzwQ+coMXXr1nWOigfMbUmVrNIpkilzNjX82Gt7DXbZVIKTEV+uxapSJOs+irNJ6hV5FatnFOfIq/iuJasqRbwyF08yH38qVKtWzTlKj/gK+eSTT54hjGSON7+8/fbbztHZJGtB48v1rErx4AtLZdqS/XL0eMGJunxboIS41kius2TJEufIH8mi2oszZ1WKW5stklr5Fsjhoydl8ORfpE7+cbmXlzqfBkuyliKZWZesmQyS+JYgPi82K0kyfSa+60up+6jacYVzZJdk4xZ+/RTMIs+U+IJ96qmnnKMCkvlYigJ3Jn08ySpFsR46T0ayzCVraYIktt/2arFsWh/JyiVeF8uqSqGEg1YK5Sy0UihnoZVCOQutFClQmKJWXIJ6iprIVArWqGK+51dffWVeM2qJCVqnTh3p2LGjDBgwQL755hu5/vrrzed8RkRS7HxVvtepUydz3Lp1azO3FVgI7aGHHjLHuUBkKgWVgUXQmPjC1H4WRWvTpo0JnKlVq5ZZGa9Lly7yySefmPjK++67z/yOaQVdu3Y9PT5AxYAyZcqY/y7JZp1nE9p9KGehlUI5C60UylmkVSn8umqTBckkG/pONATMbxPdX7JzJxtMS/Z5omtjvfgd1k92/cLO75ZZYRYUn/Pb2M/TqhSMUs6cWfhaFevXr3eOvImfnhbP4MGDnaOzWbRoUcIVbVlPK9Gw99KlSxMKJtnSAN9//71zdDaspbVgwQLn1dmQb4TKss6F4S4RXRjxywm4oAhDYWXH+6ypVdgidtz35MmTz4jTTKtSJKoQkGgUkxqZbKGy2MW4vEhUqO5iYoWR7NzJAmuTLTSW6IHgYUq0ABzEL3cUC6O/hZWdu4xAYed3F38rLPKLMo1foK1IdYpk0dY2zbZkjqZki6wlG2kMkmQhA8ki0tIl7UoRu6BWvK3OEgKxn7uOIJcLLrjgjM/jMxP7GSkeP5/TysV+xsJksfz5z38+4/PYhdyBBd5jP48n9jO/n8fPp2UVnNjPccTFcsUVV5zxeXwFjv2MlIyklWL28jOXHIolfrHScuXKOUcF/P3vf3eOCojdJgHCnEEVv/7nXXfd5RwVEL90kuukckk3xvLpp592jtKHHQdiuemmm5yjAq688krnqID4bSX8GgSFVooS9efL6Dl7ZNHawhdL1UrhzVtvvXXaHZ4JxbZSwNHjp2T/oROydov3zCutFN7E7hmSCcW6UiQDEy92QS3MvljQyGM/jy/Y2M9I8RTl53PnznXeLQCLIPbz+KlzmL+xn8cT+1n854yTJPocEn2OPyf2s3irizW6Yz+PV6JjPyPFk+xzX5Uil7BpXSQj7Hsr0kqRzDmV6rpPsQuXFVWiZUi0in8ys89mpUlm6sevP+qXlCrFE+0Kd6zEkmxeRipzHxo3buwcFS00yYmUv2T6TTqVgjiMZEsdp0My/06inRMyIWml+HulOfJkipWiKAhz1dygYPXdbt26Oa+yjyLtPpJ5DW0u8ZNMI0/XD5GIeOvBL8lagmSDZelSpJXCrykUJMkqLHpHUcAYw8MPP+y8KhqSjS4XNUVaKZK1BGFnLpZkFbY4B+Emq7B+h+XjKdJKoeQGZ1QKVtaNXXKA43QssWRaclGP5qVDslYs2QRgrI9UPbCMuBal9ZHsuqlYH3feeadzlJyzWootu47K+VXmyM1Nf9uqoP673rvcxZPs5pMtFhYkyZrgZL4AKoXXoqleMBj27bffOq/8k6zCpuKnSGel4aTdx6+Hiq/yWFyJ3fsjGylSnSLTOMIwSBTfCUWlBLMZ/rXXXuu8KhqSlVtRe1uLtFJkc+RVskXW0i34+MFBPxT7yKtEJOvbbJp9yZ62ZAWbbqUoyuWMkp2rqJ2CZ1WK2m+vkjVbDsvCNQekaocV8tXYHTJuvj0FMUyKamCJCOmitD5SwU9QTzyeLcWkhXul7+jfNN53BqamuSZ72orSlZwuyfQdBvMSrUqbTkvBart+1s+KJ9noMpYVe50XFUm7jxlLU28Gi2roPAiSNbFFOXRe1KOW8QFA8RT1yntFqlMkcyUnswCCJJlQi2rchi4ofvdiv4RdrkVaKRRFyU20oVAUJSnaUCiKkhRtKBRFSYo2FDkGTqwXX3zRuOtjF5hh+UeGIFg2kmUhmSpIzEefPn3M91599VXnmwVLSzZs2NCskBM7fsOUBZaa+PTTT+WLL75w3hWpV6+eiTRjDdIvv/zSnLd58+Zmru5//ud/mnu54447zL098MADJrVv317OP/98s2QljrmXXnrJvHfOOeeY/0U5jqP4RxuKHIOhJTZOZvkuGgHCV/Du8/DzALJAMAsDVK5c2cy5YgyNucusM/vOO++Yc/Ag33bbbWaNFr5HVCHnYDzxs88+M2EnjB22a9fONBATJ040Ky+tWrXKJIZ9WJ6MSAUaGhoCd5yRhoGGhZWkOMdzzz1n3u/cubMZerr66qvNOYtqtoVSNGhDkWOw2BQhvszG5eGuWLGifP7552a1DBoOhumqV69uNAYWmqbRoFFgsSR6cUKgevbsKZdddpn87//9v83DzMPOQ//GG2+Y9ftKlChhNARW+2Cl8xdeeMH8hmVa2MaXNfhY2JrGilXP4ZprrjEajTu4T6NDg8A9cE7ulZDvZs2amc+V4oU2FIqiJEUbCkVRkqINhaIoSQmsocCmxbOOjZssttsL4pJ/+OGHjOOTf/zxR/M/0Zr7hYFTDScgNnSmM0BYFj7RXgOJ8LOwE05CygxfgJ91beJXG00FRjXYgAtHZLJ9HLxgMUscn1OnTk06ZSsWJoxwv/g48IOwkOTatWtTdoiyRL67oxxLzbD+UKrXx7fCsno4dGHSpEnmv/s6GdSzYcOGmXtltAiZMVso1etTx/r37++8EnOuwvZpiIdrsG+DO+MZ2RVGYA0FlZUHjoxnGufOxhaZNhQ0EMlmJBUGHnsqLBNEEm0cUhgMK1L5eOCpSOnA9929FzJpMNzGiXLLdKf9VCt5PDSq7hoUmcyA4gGn3Kiw6TQUQANJh8Rqtjx0bv1LFbdjgUyu75YZI0TpzlAn39yzuycHI1fp3Lu7wQvnoe4ysz0daJjcMqP+eW04o6aHoihJ0YZCyToI6kq2W5lStFhtKBItmQ7xO4bEE7+DSDzxO4rEk2iptmS+iQ4dOjhH3sTvGBLPvffe6xx548dPkcy/EL+7STzJ7j1+95N4Ei0ykcwcYtHqRLBZFkFdhan3fJ6IZPtIJiLZ2snxO7HEE78zSzzxO7XEk2hqeWH7T7okWyEl2bpTGTUU+w+ekAsenyU/ztgt9z23ROavOiA79x6Xko3zzlh4MxnaUBSONhRngx8AW5pVYApDGwpvkjUUhe1J6pJRQ3FvfuMAV9WdL+VeWlrQUOw7LpfWLNxr6oU2FIWjDcXZVK1a1YysJFq6SRsKb5I1FMmwanok84wnEzqTihLxzDPPOEfepOvZjqVt27bOkTcXXXSRc+QN8ykSMWbMGOcofZJ5vQnZTkSyBpiw7UQkamST9VxMDvPCXV3zuuuuM/8LI1nnkmgn9GQMHDjQOfLm5ptvdo68SdZQfPDBB85R+hCGkIjatWs7R5lRrJ2ZyeymZCTbwj4R6Q5rxpNsvd5k+Fl21u+StX7v3U/Z+ZEZJGuIgiTV+IXCyHQ4H/zEzADDyoko1g2F38UnsWczxW9Dkc0kM7uS4afskskM04PgqFatWjnvnInNdb39rhTsZ4cAysUPyWRerBuK4gKF6LfFtsGDDz7oHOUOrLVB1Gs2yiObybihuKLWPBk5e4807rJanvt4vazYdEhKN8qTk0XYEftdtttPzxjbK7JWQ7r4VaH99C7ubwlBJ6WL33v3o1Ekktl3331nek536roXNncfS+YnSIYfbSiRozMVksk844bilqYLzVDoy73Wy/KNh2T9tiPy+KvLnE+LhkxDkF38CM6t7CzIkgnphOB64cdsiv1tMqepF37v3U9DkUhmLMhDI5jIls9kXlFR4denlul0BfDjmIdk/pXATQ8e9kwTjimv91NNfn9PynTPSD8PS1HD4jBeeSssFUW5ZZoKu/aUKVNMXhhW9vrcTcXx3rMlJaJY+yj8qlN+HTx+8Hvvfhoav42U33v3g1+ZqcwzI9m9B95QDB8+PONETL/X+6kmxr293k8lMZvQ6/1UE8vOeb2fahoyZIjn+6kkP78l+b13yi5TNTrZFrUEFhHCzZJ/XiTrGYMk2ZZuyShK04NgRi/ZFJZ41hLhu6GYu8LfUFoi/Iwrg5/hKr8ttF/Hlh+vvt8RAb/3TtmxkG8mJJMZq39//PHHhWoOfh42v/h1vvvxS8VqBKwDky7JGuhCG4o/PVkQ6nr7M4vM/0qvLZc/Vyi4gdJPL5Q7WxasMcH3Rs3ZI9t2H5O7WxXt/opKdpMsTD1d3MVlCouhUApwV1MvSgptKM6tVNBQNO6yRqp1WCF5qw/K5bXmSeX84//vwekya9mv+e8vl/94uGC+xq3NClbJKUr8Bv74GW7yq1H41Yb8eLH9esD93rtbdszJSDSfxotEMnvsscfMMF4iP4TfoCc/+NVmku2knQi3THBcZ0IymRdrZ6bf4aZk6lQi/DYUGsJdAPuCMAkt1XTrrbd6vu/uC/Kv//qvnp+7ifkWXu+HkUqXLu35fqoJv4vX+6kktk/gf6Y+mqwO4fZra/vtWf3gJ2AK/Hjv/Xr+/d67H/zKzGbEpt9r+xk18duxJZN5sW4oFPvQ6Fx44YWhJWbder3vpvPOO880Jr/73e88P0/2+yBTUVyb3deKI0kbikdeKtpoy3RI176Nx084r98W2q/ZVFSRmZkQe++Z7Nzlp+ySyYwFaAubig5+w8/94HdoFp8cJkAyM8ALv5pYsqHdpA0FIxzQ6sN1MmnhPjlw+IQMnvyLDJ+5S6YuKnDeLFxzID8dlFuaFoyQFBV+fAzgxynnt6HwW2n8OLb8/Bbce4/diDgd/JRdIpmxOTIkWjjH79CuH/x2bO5s6RtuuMH8Twe/wV7J6mvShqL1J+vzG4s8GT+/oKW/vsY86TWi4KTX1Z0vDd5bbY4rts98QRCleMLu5MUJVmlKtPdELvHRRx85R8WDwH0UjKVnmliJyev9VBOeYK/3w0h4773eTzXhwfZ6P5Xk57ck7r1BgwaOBMOlMKda2bJlzX83lqIw/GpTfvBr8sWaD+xv4iWbwhKbTHu9n2q67777nCt7o85MRVGSog2FoihJ0YZCUZSkaEOhKEpStKFQFCUp2lAoipIUbSgURUmKNhSKoiRFGwqlyEhnejuTzfyGySvhoQ1FjjF37lyzP2fnzp1Pzx1gnUnmULAbOPtfjh071rzPUv4jRowwi7189tln5j0iAjt16iSTJk0yrzkfzJkzx6yXQGixuzYEDB061MwzYFOeEiVKmD1TaTD4Lt+75JJLTKQo4dd8p169emZSF5GfbEg8YMAAycvLM7Mm+axly5byyiuvWF12XzkbbShyDEKcedBiNxK+7LLLzKY57n4d7nqWvMcS87179zYrI1199dVmfwd2ge/fv780btxYHnroodPf52Fndia7dnMutALCvV9++WXzeaVKlcx/6NKli1mSrUqVKmYSF5O1vv76a/MZC78y4Yxd15mMxLWYw9GzZ08z8evtt98231OKD9pQ5BjLli0z8yKYru0+uE8//bRZkJbd4XloWZ2ceQU1atQwu3vTqPTr10969eplNIunnnrK/Ibp5pzn/fffN+eh0ahQoYJ5r2nTpsZ0ePLJJ01Dgtayfv16s0I21K1b12garAjOtRYvXiyDBg2SRYsWyYIFC0yD89prrxmth128mWKNdvLII4+Y+RpqlhQvtKHIIVjHoE2bNvLhhx+eVt15EHkwSUyDZpk7d80GNAh6dMyMRx991LzHccmSJc0D+8knn5j3evToYf6/+uqrsnbtWqMBuJ9Nnz7dmC+YGmz5h/biwj6ht99+u/NKTKOBacE1aYRccwcNxgUzpFq1as4rpbigDUUOMXjwYFm4cKF069bN9OZoESzPxj4bU6dONWYCJgC+CvZxwNzg4eeBZS8PGgcefDQR1kTANEHj+P7776VcuXLGl4H5gV/hzjvvNFoAfgeWh8cPgVaCD4Rl6zFP3HtisRnOFbsgDpoPjRpwbkAbGTdunDlWihfaUCiKkhRtKBRFSYo2FIqiJEUbCkVRkqINhaIoSdGGQlGUpATaUNjcOYlr+/29H/xe28/1M/0tkZbutTPdbYzFcTMNlnKvnwmx95vJTmexv09XdrH5zaTs3Otlmv/Y62d67/x3Ze9FYA2FO59g2LBh5n+6MLeAAJ5MYL4CBUbwTiarMhNQBJlen9WYCS7KBDfMOlPc8s603IGw7kw2+3VlnmneCekG5oukw/z5801sBxDzAT/88IP5nwweDILMiOsAYkKIDUkVAtjcbQ2IQYHx48en/MDOnj37dHm59Y0AtlQgmI57dTfvIWKWuJVUIUbGretEziYisIbCzTwFnymE9GYCLTMtpFtpMmH48OGmwUkXrktw0+TJk5130oMISgKWuPfYniJVqLSETKf7sMXiVvh0ce+bBzddyKt73W+//db8Twf3Ifvpp5/M/3QedliyZIlz9FuDlSrufVPvKPt0O5jYespxsl27YmEHdToXN0w+1UbGxS0vGks6uMLuPbCGwr2gnwqbaUNByzpt2jTnVfq4hZduoQOzNNnun4aGuQ/p4rbsRFimq0bCyJEjzX+iMTMhk4fcxa3wTPBKV/0Gfkcvl0mdceub26PGPnzJ4F79NBRuXeOBzaT83Htlshyko5FR37gu4fmUHc9MOg2NW9fpoICoXS8CayhQ6XjQ/OzBWdhNJ4Op0TwwFAJhxunCVob81s+WhpnuaEXPSrkh9EygwnDvmW6EQ7h1ptAjce+ZaGJAmWXSOIMb+o28OYc7xT4VaCjWrFnjvPrtgU0VTFygV6becf10fA38Dpirg+zS8bFgIsZOyUebTQe3kaPcuHZhz2ugzkxFUXKDQBsKHD1+yMR77ZKJMy4W1mWwhd9FW/xulusHv+XmR25+txP0W18zMRVd8O/4IR1zIxNUo1CyCnc0gxW8lPAItKFgyvETTzxRaHrmmWecb3rDJsNev3NTInBIef3GTX/605+cb3pzzjnneP7OTckcTl6/cRMbyiaCpeK8fuem2DUfvPjrX//q+Ts3Jet9vH7jpquuusr5ljcsf+f1OzexeE4iWMbP63duYgWswhoJfCNev3HTX/7yF+eb3px//vmev3MTK3Yl4sEHH/T8Hcld76MwWGXM63duQqaJ+OMf/+j5Ozel63eJJ9CGgoJPBKsjJcJ1EmWCO65eGDfeeKNz5M0111zjHHlDhc0URkUSUbNmTefIm2TlWrt2befIm1jHXbqwxkUikjUkpUqVco68cZfL88JdvzN2yb1Y3M8LgwcmERdccIFz5E2LFi2cI2+IPymMZDuds05pIlh7NBGsD5IIHJV+8N1QDBy/U66q7T0kpA2FN9pQFE6ihoIl/qCwYDJtKArHSkNR++1Vcs4Ts83xkCm7pEyzRbJxx1Gp13m1ec9FGwpvtKEonEQNRfPmzU3ZsZSeF9pQFE7oDcWvh07IwrUH5OQpka27jpqG4tIa8+TGhgUBG7FoQ+GNNhSFk6ihIOo0kVy1oSic0BuK4ydOSd/RO2THnmOyYPUB01Dc1nyRfPLDNtm++8wgE20ovNGGonAKaygIBCIV5p8AbSgKx4rpMW/VARk2tSBqkQZjzoqC6MeJC/aZ/y7aUHijDUXhFNZQuKt+N2rUyPz3QhuKwrHuzExEsiFI9o9IhBt/ngnJYv2vvfZa58ibK664wjnyhlWsMyVZeDYrXSfib3/7m3PkTfXq1Z0jb9zl+jPBXbq/MNgCIBHu6tyFUVgDX758+aQBTe6eIoWRbIjy3HPPdY68eeGFF5wjbxJNV0jWUHTt2tU58ubvf/+7c+QN2yUkYsqUKc5RZgTaUDA5KxFLly41s0sLS8kqhtdv3JRsrgXRi16/c1NhDjMXGjGv37kpEcwt8PqNm5JN+d20aZPn79zERKFEMLXZ63duSgQV3us3bkr2sKJNef3OTV7RlUyQQx733Xef52/cxNIEiaA+ev3OTcmiStm8yOt3bko229frN25K1imirXj9zk3J5iXxPHj9zk3JCLShYJKLH/yEcGcyGSwWHkZbJGukkmFz306/5eZHbn5DuP3WV6Z6Z4rfEG6/65gkI9CGIpP1FIoL2XzvNlGZ2yHoew+0ofDbq2eypoFLOtN8vfA7qSyq+C23ZHKrVauW+f/WW2+Z/7H4mZQFfuurn4fVrzaUzrT6TAi0ofA7k9DPw+634GLnQzCvA9s8rIT67vV+qolyT+YoDgq/sxiTyQ3/TYMGDZxXZ+LHVAW/9dVPQ5XMr5SMRCMuRUGgDUWukGxIrzjC7uJ+tarihjvS1KRJE/NfCY8iayj6jz3bgebXqebHOUTP6ofYIcR0liYrCpKNFiXD7Z26d+9u/oeJn6FXSCS3xx57zPTaha3i5Ldh9Ftf/ZjKfk02Np8OkowaiqUbDkr1N1bKS59vkMGTfpG7Wy2WZl3XyPQl+51vFOC30thsKNzhJsaf/dqu6eJXDXV/nyyeIgj8LB8IieT24osvmmG+wswTvw2F3/pqs6HwO2qSjIwaimUbDsnqzYdl7Ly98g+3TpaRs/dI75HbTXh3rsFEpGylZ8+ezlH2QyPAojXvvvuu844SJhlqFIdkVX5D8dgrS81rZo/2GbVdjh0/s6HIBWdmnTp1zP8w8buUXWzPSFBbmATlzMTnwshAokV/stmZ6dfczGpnpl91yo8q58dsASos5wjb7AC/ZlPs72+99VbnKBz8NtCFye3ZZ581/z/88EPz3wu/w6N+66uf4VG/jdyhQ4eco2AItKHAOUSUYTYmWuhEE5CCxG/wTOzvu3Tp4pm/oBLl5vW+n4SGVaVKFVm9enWgdSqIew8r+b33ZBRrjcImfgNg/JCK4BJhM4Q7iHIjJgRzql69es47wRB0rxwkQQ+FB9pQ+FUF/fSsfntlv/fuBz8mF/j9vR9U5pnhV2ZB33ugDYXfFtqmj8Kvn8APfntlv/auH/yWmx+5+X3Y/NZXPw2VX40g6PoaaEMxcOBAswdnpolFVL3eTyWxF6XX+6mmvn37er4fRmKHaa/3U02s6eD1fhiJcnN3Nc+EZObqbbfdZuJEmCofj98G1u/MVz+9ut9Rj/i1MLxkkyglI9CGQokmOB2DihREW6pWrZrzSvGidevWzlHR4buhWL6xcHXNb5Senxbab+8SdKRbItjK3g82hnRd3HLLdKnARHJr06aN+f/GG2+Y//H4NTf91lc/po9fsydWI6lQoYJzVHQkbShOnDxlVtyGkzHHmGO8frP/b+pavInm13vvR/B+C97myIHfRspmI+eWW8mSJc3/dEkkNzQJzA5WvPLCr53vt7766dj8Nu6xQXZ+A8e88GwotvxyVD4ctlVmLivo2aYs3i/b9x6TzTuPyPfTdsvhoyfls+HbZNOOI/LOwM1ybf0Fsv/gCc+JYUo0SbYUYSYQE8LWeDZHdYo7bLfod/THC8+GYvPOo7J262Fp23uDbNt9zDQcc1cekBL1Fsjwmbtl8bqDsnJTgZcVjeLlnhvkrf5nt2J+w3lthnAHHRKbCL8qcNAzCRPhlhuVNdlK6F4UJjfMsWnTppl9WQvD72iP3/rqR6Pwa266mlyyFdwzxbOh2Lj9iKzcfEj2Hjght7dcbDb4ofGo1G65lH91mVmqv3TTRVKuzVJpl9+YMBmsTPOz1UG/syD9FLzfSuNXcH7w28j5/b0fYsutRo0azlHqFCY3V0MpXbq0+e+Fn/oCfuurH03H7/Cma7p89tln5n9R49uZCRMW7JVd+/05kpTcozCnYyZUrlzZ/J84caL5r5wNu7kHRZE0FIVhcxVuv+HjQTiEUiWbQ7hjy40RDOIe7rrrrpST1/dZpv+1116TPn36yN13333W52664447PN9PNbHniNf7qSY24fF6P5XE5D2v91NNaFrJ9qrxQ6ANhV/1349Txq/Dy++9+8HvMJ/f3/shCJkzgsJy9H53u0pG0PMlEuG3vgYtc20oCkEbiszwW25+5ObX22+zvvr1r2T1pDA1PTIjV0yPTEgmNzdU2WufUb9Bdn7rq5+H3W/si98Rm2QE2lAo2Q8bSV944YUpp4suusjz/aJKVatWNXNJ/vrXv3p+7icFfe+ppOJKoA2FDo9mRnEaHh09erRzlBp+yy2R3FxNqVKlSuZ/PNk+PIrpkunK6UGH7SdsKA4cPiFj5mY+q00DrjKjuARc4TxM1+72W26J5OY2EF988YX5H4/fzqE4BFzVrl3b/E+XoM3NhA3Fr4dOSOtP10uNN1ea110HFxTkpz8UhHdXaV8wbjt0akHF/uQHew+XUvSg5hcnWJoQHwgL7eYq3bp18+2UDYKkDUXfUQUt1Wt9NsqtzQqiL8u3XS7nVpota7cURJNdVnOerNt6xIR2x6KTwjKjuEwKe+aZZ5yj1PFbbonk9tVXX8mYMWOcV2eTK5PCMnGq+t2TJBlJG4rvJu+Sk/kt3Fv9N8ltTph22TZLpU9+A4Im8UR+o/H1+J1SqcMK81ksOs08M/za+UVhrzL6kMl5/JZbYXJjgd0VK1ZIw4YNnXfOxu+wcHGZZk4AVbr4XfgmGQkbikNHTsozPdZKqcZ55vUXP22Xa+vOz9cuNsjgKb/ItbV/myFY/93VzpGSC2SiTQTJ999/b/4/9NBD5n8u07FjR+eo+JCwoUgVTA8v/I6p2zQ9gh6XToRfNdJvzwiZ7oZOBKUfCoujYJgWEpkHfrXI4rIUHvJPtxyDdr4XSUNRGI8++qjce++9GSfi+r3eTyWhvnm9n2oqU6aM5/thpNtvv93z/VST39+TMh01CmJxXR7AyZMnJ52N6jca12/n4scJGe9fKV++vKdcCkvMkfF6P9WUjEAbCr82o5+C9+s59tM7+MXvtf0+MH7we+9ecluyZIkZ+kz2IPuVud/66ge/Mgu6vgbaUCiKoiiKEg1UoVAURVEUxTeqUCiKoiiK4htVKBRFURRF8Y0qFIqiKIqi+EYVCkVRFEVRfKMKhaIoiqIovlGFQlEURVEU36hCoShZBEvdderUySwu7LVkX8+ePWXRokXOqwIGDBggc+bMcV79BtsyDh8+XNq0aWP2EWH7g0mTJsmoUaOcbxSwceNGcw7O3bZtW7PC2Keffmo+69+//1mrhS9evFh69eol3377rQwcOFD69etn0qBBg8ziQ/GwUNB77713xtKNLE7Url27pJsxffPNN7J6tfc6vazOtmrVKlm6dOkZ98gK8ZRhskWCWMT5s88+c14pipIMVSgUpZhCJ3zJJZdIkyZN5KOPPpJy5cpJnz59zGfxaw/TKbNg+rBhw4yC8O6778o777wjV155pdx3333SqlUrefrpp815YObMmXL55ZdLy5YtpUWLFlK/fn1ZuHCh2VupadOm8vnnn0uPHj1k5cqV5jyco0SJEnLBBRfI/fffbzZrQ/moXLmyURyWL19+1sZ0derUkR9++MF5JfLEE0+cpVCwqwPXmzFjhrkHFJSXX35ZmjVrJuedd5655xdffNGUBbDeMOsqoxSgbLA3Ve/evc213ffZ0QFQNrh3yopzo+SMGzfOKEMshYuCM2LECJk3r2BN8C+//NIoS+Tn448/lk8++cQkjtmUju1kULaC3rVRUbIVVSgUpRhD53fNNddI69atjWLxX//1X6YDfuutt87Yiw1lACv/d7/7nfkN3gbW7+7QoYPpDF955RX5P//n/xiPAaBQoKzQgdasWVPOPfdcszED58/Ly5MFCxac3tEFxYLPeP3YY4/Jm2++aXZVYb1wfk8HPnToUOnSpcsZyxpz3lKlShlFqFatWvLAAw8YRQHF4tlnnzWbKqCUoMTcfPPNMmTIEONJ4b5vueUW+Zd/+RcpXbq0WUd/1qxZ5px4P1AG6PxJrDOPQsQxSgf70LseGpSryy67zHyH37AjDDulvPrqq/L888/LI488Yu4NDwagzFCGwG67KDJs1kF+KfNly5aZzxRF8UYVCkUppjAk0bx5c9PJ0ykyzFGyZEnTwT788MNy3XXXSYMGDUzHTmd44403mo058CbgYaBzp8Onw6RDjN3jESUD7wVeBK6Bx2Ht2rVmeIP32EjHHVL57rvv5PXXXzeJ89F509midFSvXt3sn8COynzugsfiwQcfNErPa6+9ZpQSoLPn3HwOeBC4bzYjwfPRvXt36du3r7z99tvy/vvvG09L586dT++tyU5inBeFBiXhf/7P/2kS+UZh4dzr16833/36669PXxdl6M4775QrrrhCbrjhBuNt+fOf/yx//OMfjXLD8AdKGkoQ5Xvttdea8v3Tn/5kFC9+g7LG+eM9MYqiFKAKhaIUY7DM6TxRLnDPY+Hjcqfzq1ix4umhj5EjRxolAmsd1z4KA4oAQwZ0xngB6Nyx0tesWWOGCvAaYH2jGHAursV18CqQ3K0NUTKItcDLgQLBOcaPH29+4+4oz3nceAOUBRQEPB0u3M+//uu/mh0DY0E5Qangvj/44AMTp1GtWrXT3heUIhQI7sFlypQpxnPB8A+xHwxRoHSgdJEXF4Y0GJJh6IPyYec6votXgryhBLVv3958F6WMrSpjYy3YSInPySteGLw6iqIUjioUilJMIQDTDUokGBLLGU9ELHgHgBgEOkM6YH6DRe4GV2J90+Hec889p136QMxB7F7OXbt2NXECQGdKR098AXEHdMooClwPhYZhAyz1qVOnGsuf4Rg8IHyO4gN0/Fj0dNyxMOyCksA9812UBzewkvvBY4CCgreC+8W7wrXIV3ynzrmnT5/uvCoAJSfRHtUMYxBTgZfHVXr4DUqTC94RPB4oUAwfKYqSHFUoFEVRFEXxjSoUiqIoiqL4RhUKRVEURVF8owqFoiiKoii+UYVCURRFURTfqEKhKIqiKIpvslKhYPldpnixmh2r4bFYTuwKfWHAVDeWFU6210BRwlx51grgusyr//HHH0+vFRA0LO3MHH9WRGQ6Iv9Zljls2OOBFRXnz5/vvBM8yHjw4MFmiuPo0aNNCnMqIdNB3XIn70wnDQOmlZJXruv+Z1qpu7Jk0PCcU895zqnzTBnlGQgD1qyYOHGiaV/IN89aGM861yCvroxp15A/cqcsqIcs7hUEXGvChAlm1dV42BOF69MOBAXXZYqyC2ussAYIZc+1+Sx+yfmigjKl3GlfAPlPnjzZvOe2dzwPQcCeM/RnXnvzsC4M06xj12Epasjn3LlznVcF686whgtlTt7Hjh2b8mJuWadQMNedh8sVLhWcShdbIEHCPHuE7Hau7gp+YTBt2jSTXNyOJgylgnzHVioaGBrbRPP9ixLWRSDvLM3Mcs2xCxgFDesv0KnRwfCQkfewYB0I1kigoefaHFP/km1sVdTQ0VEGP//8s/NOsNC50dBR5hxT91ioK6jONBauR+cVu8kai4GxoFdQzzuKEkoESjqLb7kLe7F6Kc+Zu94IHSqdHPdTVFCXUN5Yn4Nrxe63wvV4nzVF6FyCUCioW1yDMkfewD1R32KVV9YM4R6Kss1BgeDaPGfIF0UC6ORjFUgMOe6vKJ87ZE4/hiyp27HPFvfFs46SRZ6LWqEgH2zGR1tCfXLbU+r+7NmzzbVRJEjpGDBZp1AgfBQKd2dCCoCFbeIXtwkaLNSwFQpAocJSowLGrkQYNDTobiMHrByYaKfHogSZs6ATlZ7OHE8BSiQaPfIPG8qdxs5tfIKCvKFEcS0X6huNvpc1ExQorDQ67qZbYUBji2XqNnR0qNwDe3mEIXPaFxpVZE0Hy7OOHILeGIyOnWfbfdbIL9ar65mhHFAsg9hXhE6GMvfaEZYONyiFwoW67ioULnRmXJcyCLKt4dyxCgUdfayhxs6zKHpBPAMoLnieXIUCRZa2lWuiUFH3aPOD8kxSrwsz0KgTGDP0r6k8d1mnUGCpsjofLlgeLjR4GpqwO3aui2IT5nWpVFhtPNQIF2EXpcacCB4uGhu0aa5Jg0ZFj9Xiw4JGJ0xlioYOBYZ809CTb69GNwjo2Gjo8JJwfepA0A17LHRkdGBhDjEBzznPOGXPPaBIU+5hKLCAfFFc6WC4PmXu7hESJCgUsR4KLGXKHwsZ+eOJRdEJ4rnnnK7SFg/X5T6CrHe063RewL0gfzo6joNu71yPq6tQ4AnjuUOB4Jqs6hrUc0cbGu+hcKGPo90N0jNHPXefb/LnvibftPfUx1SVGQ3KVBRFURTFN1mtUASlraaCzWujrYfh9i0MLffwUZnbQcvdDipzO/i9dlYrFEFF/KYCQTO2BI9bKqxgSC9ww9rCpsxxh+KKtwHXDTpmIxE2y91mfeM5C2t4KR5k7s46sIFtmdvq1BlmcGNWwoY+JZtlntUKBYFCRKRmkvitn/F/xpYYz/Y6dyqJQMNMIZ6BsWWv86aSGIfO9GHld4wnep03lUTAkR9liKhnr/OmkhgHZiw+U5hV4yfvfsZBCQb0I3NmD/hRgP3UdeJd/DSSxDN4nTeVxKwg4hIyheeUgDSvc6eSqHNsq04eKIM77rjDxEGlAt/3I3PibvwowF7nTDUR++Cnc+LeiRvxOneyhMxjA8jThd/6kbmfKeUoMn5kThCnH2XIb6xGVisUf/vb35yj9KHgH3vsMedV+rD9sp8grfPOO885Sp8vv/zSbB+dKSVLlsz4gSMItUSJEs6r9GFL7I8++sh5lT5///vfnaP0IXKbBj1Tqlatah7aTPFTX4nEbtiwofMqfe69915fAY0XX3yxc5Q+ffv2lfbt2zuv0ueyyy5zjtIHa/P66693XqVPixYtztjWPF24tqtMVatWLa1IfepahQoVnFfpU6lSJaMIZoqfNor6+vTTTzuv0ueGG27wZXhceumlzlH6vPHGG9KrVy/nVfrwrGSqyBHsf8899ziv0ocy91Nf/WJdoViw+oDs3HtMfj10QuatPCBHj6VuRZ1//vnOUfpgaT755JPOq/QpV66cr5kGfjrGAQMGyPPPP++8Sp8bb7wx4+lPWMrXXHON8yp9OnToIJ9++qnzKn38dGxY6XSsmVKzZs0zFt5JFz/1lQjz2rVrO6/S56677vK1doGfcv/444+lY8eOzqv0ueqqqzK2dlEiS5Uq5bxKn2effVa+/vpr51V6tG3bVj777DNz/Pnnn8vrr7+elpcI78bjjz/uvEqfJ554wpcCfMEFFzhH6cPCSChjmXLTTTdlPE2SocErr7zSeZU+nTp1ku7duzuv0ueSSy7JWKHAu3HnnXc6r9Knfv36Z0wzTxc/3jywrlDc99wSGTJll8xfdUDKNFskW34pWMAlFVShyAxVKDJDFYrMiKJCwVBJlSpVzHOGV4+GPt32QhUKVSjSxa9C4WeoCEJRKBiub9FjrdR/t2CFwYVrDsqfK8yWDduOyMNtChSKefkKxT3PLpGZy36Vu1stlrcHJl+4RxWKzFCFIjNUociMKCoULFHeuXNnc8ywA51rup2MKhSqUKSLX4XCL6EoFHt+PS5X150vyzaeHa3teiiWrDso/1F2hrzeb6OUfjpPvpuU3PWiCkVmqEKRGapQZEbUFAqekaZNm5rlquGVV17JSClRhUIVinTxq1BkTVDm99N2ya3NFkqLD9bIXa0WS4vua43n4qYmeTJw/E6ZvfxXuar2fPn5l6Ny9PgpKdk4T55ou9wcF4YqFJmhCkVmqEKRGVFTKGgXHn30UXPMkvWlS5fOaIaNKhSqUKSLX4WC9t0P1mMo/KAKRWaoQpEZqlBkRtQUCmYDMS0dmNnBUtmZoAqFKhTp4leh8Lv2R1YrFH6mfbJe/V/+8hejVGSS/vjHP/radZLOxeu8qaTrrrtO3nvvPedM6fPII49I2bJlPc+dLGF53X333c6Z0oeodxQSr3Onkv70pz85Z0ofNtTi917nTSX9+c9/9tVAM5XN67ypJKzcl156yTlT+lSvXl3uu+8+z3OnkphqnCnsU+An73/4wx8ynkLIuiPnnHOO53lTSTynKHOp0qNHD2nTpo05Zl+Mf//3fzdTP73OnSyxfkWTJk3MuTKhefPmZpq017lTSVdccYVzpvRB8UYh8TpvKun3v/99yltmx8M6DDyrXudNJaEQYLRlyi233GKUOa9zJ0v333+/VK5c2TlT+rz22mumrfA6dyqpa9euzpkyI6sViky1wKIATc7WSm5ga5VOiOq1QWUePjbLHFK5PotVsV4GG9ehuOLRQZHyi8rcDlF9zv32qVmtUODasgUL5tgSPEK3tTQs2Fz2O6oy57o2ZW6z3G3WN8rcluGCzKlztrAtc1udOkut21punTxnc/ua1QrFxo0bnaPwYXzP1sPOeDLbWtuACh/kVrrJwPqzBXO0ba2zz3UzjXspCmyWO/XNVufCc5Zp/IYL52BsHNijgq3/U4GOhRgQW9hsX9nK25YixzAZa4fYAEVm69atzqvw8SvzrFYolOIF1hzL/RIQFVS6+uqrPd8PI3FtAgS9Pgs6cV332n6C3ZRwYdiDwEyUA4ZFiF/yq6AoSnElqxWKTIN2igI0WFsaNJ4RWzswYimyOZkXrAw4YcIE51Uw+Nncyy/McLE17MB13Y6oX79+vmb5ZILNcqe+2fJQ8Jxl6omkfSLQDTjPU089lda5sFZtWcpgs31F5raGF/EG2hruoU/xs2mlX/zKvFgqFCdPnpLjJ5I3IJlOKyoKWPPcVudChbdV6WjYvdyww4YNM1HlQWNT5jxstsY3ua7bqaPY1K1b1+yqGBY2y536Zkuh4DnLdJgLBXvs2LHmmMWt2M8jHWhfbA1tgk2ZM7xoy2BDibPlRUKJtDm06VfmoSoUv+w9Lv3HFSxi1b7PRtm9/7h0+XaLNPtgjbT+dL1Z1GrNz4flnlaL5cKKc6TniO1yIl+5UIo3PIDly5f3tfuqkh7MNW/WrJnVoD2lcNhmv0GDBkYhIR6A9QH8rAOiKNlAqArFik2H5Ipa82T60v3G4nio9RJ5uecGs9vogcMnTq+K+eWYHVLxteXmOBE2g1fQIm16KAobdggaLw/F+++/b3ZSDAObVhPWok0PRbw7EiWOaYphEFUPBc9ZJh6Knj17mqEpYE2GTJ4PlEW/uz/6wWb7GmUPhd8NuvzgV+ahKhTLNhySMs0XyerNh2XfgRPyyY9bjSIxMW+fvNlno1xYba7ZdbTv6O3yZLvlSYc9bHWqgNvZZgxFpm5Yv9Cwxw630Ng//PDDvpdsTRWbMqeRKQ4xFC48/H5W1UsHm+VOfbOlUPCcpesFQgmoV6+eLF261Nw3i1MRkJkudC5hPVde2Ja5rRgK4idsGQ7k2WbcjF+Zh6pQrN1yRGq+tUrWbysQ1i/7jsmDLyyRS6vOlavqzpcxcwsyg8LBZmJv9d+U/0Cat5RiCjMOhgwZ4rxSwubDDz8MzTukpMbw4cNPL5PO0AcrlCpKFCiWQZmpYnsdClvWKpaqrQhsLC7GhAGry88ysZmg61CcDUvQr1ixwnkVDDbLnfpmy0PBc5au+5uZHa6VyfOxZcsWc5wueEa8AqDDwmb7SpnZ8gBjpdvyEug6FBZhTwn2GLCRSpQoITfccIPnZ0Gn66+/Xq699lrPz4JObCzGXhwcsz9E2K5BW65IQIG05YbluoUpsDS+7M0SL6uiTK7MbSSuTb3z+izoxHPG8+b1WWy6+eabTXvwv/7X/zq9GRjDHqn8trDE+WhnvD4LI9mUOfm2JXP2SvIjNz+JPNuUOfXYD1mtUNjyEACapC2ric7FlvYONsvdtsxtKhRc3xZRlTnPWSoyJ2B30qRJxpPEGDzrsfgdj6Z9iarMbbavqco8CLJd5lmtUGzYsME5Ch/cUram7BGoZWt+OhXepvvbphsW97PNIQ+b0d82y536Zqtz4TmzFRiJN87m7Bqb7SvLrdsymljvJTbwPEzo0DMdIisK/Mo8qxUKRVGU4s7AgQPliy++MMfjx4+XN954wxwrSq6R1QpF69atzYIxNlLDhg3NwjVenwWduC7X9/osjBTla6vMw0/ute+55x7p0qVLqO5ohi/8uIFbtWolvXr1MscoEm+99ZY5TgUsdFtL7IPN6Yt4hWwNO+AZsuV9Js+FBQHPnTvXxHbEPx9FmVq2bOlcLTOyWqFwZxvYAPezrTFGGhlbeyvgerYZhWzTHcj6ArbW+Oe6Npdhtlnubn2j7hF8unx58kXvigqes0w79RkzZpjAZeCe2csjnaBiOjWbyzDbbF8Z6rE15MFwh61hLuInvGb2UPdRJoJeG8SvzK0rFJVeWy6vfmFvrE5RlOxh/vz5pzfcKs7QAbDgm7tVOYtb/fjjj+ZYUdIFb3zv3r2dV8WXtBSKzTuPylV15svzn6yTsi8tlV37j8tXY3fKJTXmyWVV58oNDRfIknUF2vzYeXvlvKfmmPf/UmG2zFpWoPGxqFXJxnnm/VL5/0vUW2AWsHr243VS551V+Q+i+Zq8+PkGeaLtMjmWYLVMm3O0mZ9uKxoXa9WWO5KG0qbVZDMwEWvV1rRVrmtz5UKb5U59o965sNFWWI0rz1kmXiliJVj0DbmxRkidOnXSLkM8oLbWmwGb7SveQFseCrwTtoaayHO8J5KhDupPGPfkV+ZpKxSsYLlyc0Gke8cvN8p/PjBdyjRfKDc/vVBK5CsbV9SeJ6vyP1+6/pA8+9F6uaXRAvM+ygN7edzafJGs3PTbA1qz00p5Z+Bm2XvguDn3T7N2y4x85eO2Fotk597EHbbNde5p3G0pFDRS6S62U1TQsNts5Gy6/XGF2hpb5bo2x7Rtljv1LVahoKO9/fbbQ+nweM7SVSK5144dO8qgQYPM6y+//FI6depkjtOB9sXWbAOw2b6ivNuKoaDjtjWbC4UidjibuteoUSMZNWqU806w+JV52gpFiXrzZc2WAoVg8JRf5LoGC+TosYKHvefwbfLoK0vzFY3N+YrDQvMedBu8RUrnKxxHj580ikLX/NfAPh7X5J/vja8KpiGyCynnu7FRnoyaYydGQFGU4s/QoUPNMEJxhHgTti5H4aFTZIhGdxpVMoH1TGrUqOG8Kv6kpVAcO35Klm88lK9A/KY5soHXjKX7ZVLePlm56Tetbm2+0sF7UxbtM96HvNUHZMP2Ak3ffLZgr8xbdcAcb9/zW3BjxfYr5N1vNjuvEmNzPQQaC1tBmcVl6W0bMD/dFrjeba5DYdNitFnuXktvMwxBVPq0adOcd4KB5yxdb2D37t3lzTffNMd4KZo3b26O0wWvlM2hJpvtK0qZrSGP4rL0NnX+wQcfDHUNGL8ytx6U6bIgX+F49OVlMnB86uPztsa5gAbNlkuOSmfL9Q62OlWwKXPcj7YaOa6bruu9KLFZ7oXVtylTpkjdunWdV8UDns3HH3/cHPOM4qlQlExAKe3WrZvzKhz8PufFRqHIBFsdOti8NpprvMUWJlEtd65tq9y5bpTLvTCIMVi9erWsWrUqkMS5Uzk/00IJFGVqH/EmixcvNutmsBy31/dTSaleO6jEMI3X+2Ekm/m2Xe7utW2skur3Oc9qhcLm0rC45Gx5CYhCtuX+pmPTpbfDh+vadH9HdeltnjNdejt8GGKzFfROUKTNpbdtDilHeuntqFpsNK62GliIarlzbVvlznWjXO62sPmsqcztYFPmkM3lntUKhcZQ2EFjKMInyjEU2U7lypVPTyElQLNfv37mWFHioU/J5vY1qxUKneURPmjuOssjfLhucZzl8f3335t9RoLEptufiP9MFrZyqVChgqxcudIc16tXzyzHnSoYDjZlbnO5ddpXW14Cd2Eryr9ixYqydOlS55Pg4Zo2tzbImVkeiqJkFyi2t956a9rTKqMCO4yyqieMGDHCeCdsxQUomTFmzBijMNschsgmfCkUvx46IXe2XCzj5tkJYLGpvetKmXbQlTLt4FXuzz33nPTv3995FRzxK2WGCc9ZJkNN/I7po1j5tBOsmTF9+nTn09Tgd7pSZvjgnXA9kdwDskOxCAOGNmNXygwbvzL3pVAcPHJSStSdb1a3ZGXLvqN2yGW15pmFriYv3CfX57//6+GCMedvJuyU+55fIss2HpQyzRfJqNl7ZNrifWbJ7s9+3CZdvv1Z7nhmkRw4fDL/QTolT7ZfLi17rM1vSMzPPcEtZgsaOVsKBS5Y3csjfHjQbcUxcN3itJfHvHnzjAs/jHuK38sjTDLdy4OYiZdeesnct7sXQ7rn0b08isdeHgx5VKpUKRRjgjzbNJr8yty3h+KeVotl9JzfGpVXe22Qhu+tlvHz90qZZgvN8towdMovUvbFJXLk2Emz1HbpRnnyD1ePlwZvr5Kl6w+a5bsfe3mpdBv8s3w94Rcp99LS00t6K4pSfECRbtWqle6eWQh0PJTP8OHDzet33nlHevToYY6V7IRFplSGyfGlUBw4clIuqzHPbA62aedRmbV8v1xbP0/mrjgg67YekctqzpMpi/bKnl+Py81NF+YrCUuM9+LCqnMlb80BOZT/+0bvr5bXvyyY475z7zG5tMZcubL2PHOcDJvBgVhstoIy0Z5tucWwuGwGDdkMFMNq8hOg5weua9NyiS139heoWrWq8yp4qG+2PBQ8Z+lGvrMgFMMdKBZ4lu66666M1rLg9za9gTbbVwJxbXkoGGbyktedd94Z+EQAlHWbniG/Mi92QZkMi0xbktq4oc0xZcZIbVV4FBlbHRsNu62FfsCmzN3IbxtwXZvTydxyZ0z5uuuuC1UO1DdbCgXPWbqGA8GXbF4Gbdu2lc8++8wcpwvtS7rKTFFi81lD5rZiKFACvYY3Zs+eLeXLl3deBQN5thnk7FfmxUahOHEyv6M6dCL/IUq94Vi7dq2ZkqVJk6ZwUsOGDWXAgAHOE6jEw2Zl1apVM8eMvQfdASnhgWLZpk0b+fDDDz2fjVxILPvth2LnoUgHm5ayreGO4oAt7wjYtNJtWUwutqx0sFnuNpfeZpgplXaGINWSJUuaaaIMhzKdtmnTpr6eFSzlKC+9bcsDzDCXzdk1YQR/FoZf70hWKxSKoiiKohQPVKFQFEVRFMUXqkwoiqIoiuILVSYURVEURfGFKhOKoiiKovhClQlFURRFUXyhyoSiKIqiKL5QZUJRFEVRFF+oMqEoiqIoii9UmVAURVEUxReqTCiKoiiK4gtVJhRFURRF8YUqE4qiKIqi+EKVCUVRFEVRfKHKhKIoiqIovlBlQlEURVEUX6gyoSiKoiiKL1SZUBSl2HH06FE5duyY86poOXLkiDm/oihFhyoTipJFjB49WqpVqyb9+/d33vmNZcuWSb9+/c7oKDdv3iwffPCB8+o3+M6CBQvko48+kpo1a8onn3wihw4dkh49esgvv/zifEtMhz5hwgTp3bu3dO3aVRo1aiQNGjSQDRs2yMaNG2XQoEFy/Phx59siBw4ckO+++06++uor8//LL78098T/kSNHysGDB51v/sacOXNk4MCBzqsC+P5PP/3kvPKGc3FfXpw6dUq2bt0qS5culRUrVsivv/7qfCLy7bffyvfff++8Kpz33ntPfv75Z+eVoiiJUGVCUYoxO3fuNIrDI488Itdcc43pyOkM6cxjOXnypLz22mvSpUsX85pOdPz48VK1alV58MEHjUIwatQo2b59u1EQXnrpJWnZsqXp8MeNGyerV6+Wbdu2yd13320UAhes+CFDhsiIESPk0UcflV69esmsWbOM4oES0KJFizOUiX379pkOvk2bNlKqVCl55513jMLywgsvyGOPPWbyEwu/rV+/vgwbNsy8njp1qrnvJ598Uho3bixjxowx97d//36ZPHmy3HzzzXLXXXeZdMMNN8i//uu/yq233mpe33nnnVKmTBnzm8OHD0vTpk2lYsWK5lyVK1eWN954Q9q3by+33HKL3HbbbfL666/Lq6++KuvXrzfKFQrVK6+8Iu3atZOOHTvKpZdeasqDY95r27at/PDDD+Y+FUU5E1UmFKUYQud5zz33mM7s3XffNR3fww8/bDprOr7YDhwWLVpkOs+hQ4dKrVq1ZPDgwaYTPe+88+SZZ54xHoVWrVrJkiVLzO/pwB966CGjDNStW1c+//xzmThxopQsWVK++OIL+fDDD2XAgAHm+0888YTcd9998sc//tF05tzTW2+9ZZQavBoLFy40HXLssEReXp489dRTJh8wfPhwcx94DGLhfRQbvBcoQm+//ba8/PLLRhG59957pXXr1qYTX7dunVFstmzZIjt27DBKyaRJk4yStXLlSvOa91GIUHS47rPPPmvuHyUKpYrvo5jUqFFD6tWrZ17j/dizZ49RsipUqGDuA6Xi448/Pv3/s88+MwoSihd5VRTlbFSZUJRiDC56LHQ6cyzuH3/8URo2bChr1651viHGCscqx/qm4589e7Z5H2v6m2++Mcd4FOg8gc4WTwGKB50z1jYdOJ4KvA90nDfddJOx4jk3SgbDFlj/KBEMSTAEgGJxwQUXmE74qquuMh2+C8rN448/bjp6hgq4HooB13O9E+ThnHPOkeeff95cl47fBQWKIZR4pkyZYpSLN998U5o1ayaXX365uXded+jQQcaOHWu+hzLx4osvGiUBDwqeEsoS70b16tWNMjVv3jxzn8A9Us7cH54UlCv+o0xw7yg28d4gRVF+Q5UJRSmmYGkzRIGi8Omnn8q5555r3PN0kigVLljsKA14GvgusRAMTTzwwAPSp08f6datm3HtMxxA7AAeBBSSO+64w1jpeEBQFC655BKpUqWKOSeejE2bNpm4A5QClAiuTYd9//33m5gDhiToyAFvCN93wTPBMAHXpePGg4CygyeE+0QpIJ4D78eNN95oOnJiMFAKuJc//OEPxqvCMUoIecSrwfU4HzEV3BO/xYPAa/LEffA9FCY8IyhF1157rVEIKBMUEc7Hd0uXLm2UIr6PEkGeUUL27t1rypihHRQOzkM5olgpiuKNKhOKUkw5ceKE6eTwKlx55ZXGUsaC3rVrl+mcY4MWsb4ZcsDyJq6CTvLCCy80Qx9PP/20cfk3b97cDCvQ0WLVo4BgrZNw4eMNqF27thkW4Lt0rAwblC9fXpo0aSJXX3216YTxSODNYJiD4RdAKUEZcKEjJlC0Tp065j4ZnmE4Ae/Dddddd9qLwRAC58brQmwCCsaqVauM12LNmjXGs0EZ0OFTHigbbtAnXgViIigPXn/99dfm/ogfIe4DTwt5QRFAgeD6eEX4/ty5c6VcuXJm2ILzch08FihPfI+YExQQPCd4ZTgf5RbUDBNFyXZUmVCUYgqWNB0vVjpxDWXLljVBh/wn0LBEiRImsJIYCIYJ8ALwGYGOeCBQQogBoNMnENJl9+7dxjtA7AMdOZ0+ygfQuWOx480AOl+8AXgQ8JKg0DAsgdJCjANeAcCDEDvzgWBHPAcEdqL4uEGdKDcEOQIdOL/DQ0JiuITzMrzCud9//31zDmawuDDsQFwHefzzn/8s//AP/yAXXXSRuQael86dO5vvoQihQHBPBIxyHfKFl4LE8Mh//ud/yhVXXGG8KCgPeDVQiihXvoMC97vf/U6uv/56M4zzj//4j6eHjRRFORNVJhSlmMJQAsGQdN7z5883CgPKAx0uVjsdJcfAkANWNha9G2vATAU6P5SJTp06mfeAsX9mhhCgiYcALwOeCCxvzoE1juUOKCV07lz7L3/5i9x+++3G7Y8nhKBGOmK8BnyO9wHoyOnYURaAoEo6aqaWosRg+QPeBPKI54FhD4IjURZQlAgg5b7xNDAEEg8zPlCG6OSJE2FoJxaUF66JZ4TPiR8h364ywD2gOJBn4HyukuPCMBMeHGB6LbNlFEXxRpUJRSnGMAPDHUpgCIIOl06amR14C1yYEcEMjJ49e5rOd/ny5cabwZg/QxhY+vyOYEpc/ygFzGjgNcGGKBMMD3Tv3t1Mt3TXb8DrQUdPjAZBoHgsUGiYrooCwW/c2A53CIB4A4ZWXIg1YGjkn/7pn2TmzJnOu7916AyDEEuB0oE3heEFF+6dz1y4H86NIoTCwdAOgaV4ZGKVAZQg8oeHBOWKoRN3eIjXxHdUqlTpdJwH5YZXA8XIheEf4jN4b9q0aaeVJUVRzkaVCUUphrAgE/EAKAl0jHgc6AiJLQA3MJKOmE4cBYJOnmEKhgUYvkBBoCOk86SDJyaCzpoOFuWCYQU6aoY5GH7AA0HQ5vTp041nAQWCDh9rHqucIRdc/ngo/u3f/s14Q7gPOnzuFYhbICiS9/E4oHQwZMC9oCwQx8G5+BzvB/fFebgfYhPcYFEUpb59+xoFinsDvBju7A0UFIYmKAMCJikvvAgEffI9N6aCsouFuA6mseKJYKgE7w7f5f5cjw7BnnyPckTZURQlOapMKEoxBCXAHSag08Wlz0wLOuFYCB5kWCF2tUi8FygT7uwDLGw3loIYBqDzxaPgsnjxYrMOBOcCrH06eAIw8VLgwWCaJTBzAgUCJQYvAvEOBHYCFjzDCXTIeFUI3sRL4oKCgeLDrAq8FDNmzDAWvxu8iULE0AQrcaJYMKUTpQII3kQRcOE6xFTEKgx8xy23wuD+8czwW/LA9fFMkFfg9wzh4IkhRkRRlOSoMqEoiqIoii9UmVAURVEUxReqTCiKoiiK4gtVJhRFURRF8YUqE4qiKIqi+EKVCUVRFEVRfKHKhKIoiqIovlBlQlEURVEUX6gyoSiKoiiKL1SZUBRFURTFF6pMKIqiKIriC1UmFEVRFEXxRdYqE2zQQ2KjIxuwERPbL4cN+XXzHjax17aRd6Dcw5Y5eXXzzRbYYZd97PXJf1iwm6Z7XRKvKfuw7oHrcF3K3MZzHpv/sPCq3245kIJ+7gorZ64btNy9ruHKgP9BwrXjyzZW/kHm3UvmLtxT0HU//vy8dvOdTtlnnTJBxvLy8mTIkCEycuRI+eGHH8wOiGHD7oizZ892XoUDuxqOGDHC5JvtoefPn2+EHQZs88y1SexQOWrUqNO7UoYFD93ChQvNjpVhyhw5U9/Ykpqynzx5cuAPuAtlzE6alDsyZ7vuoBtWoKzZ1RM5k2+2Ph86dKjZ3juMsqdeL1iwwDzflPmwYcNk165dzqfBQt7XrVtn8kv++U+9C0Pm5Bl5uyB/6hvlTh1g6/SgnvlNmzaZ8mbH11h4zTPPNvhBwc6v1G+2hAc60VWrVpn7QQbkH5nEd/hFBbvi0p4C8mcXW+oc1+a+aO+Deu7YsZfnKx6ux31xD9xTELALcewzTflyPcqd555jdi1OhaxTJth2mIebbYOBBo/tkoMq7Fi4BhWcivXVV1+ZBz8saECo1GwnDYcOHZLBgwefsb1zkFCpqNguVDQ62TDK3YXGDEWCyk/+w4AHmsadrbPDhrJli+7p06c774jJO3XQBnRqixYtcl4FC405z7mrsPKs0ZkG1ZnEwjbsKI/udue//PKLDBo0SDZv3mxeFzXImXYNOX/99dcyZcoU55OCfNORux0Zzx2KTVGyc+dO8yxT3nSgrjJBm8O12NKebdu5x6KGTgzjkPZlwIABp7e5R3GkfaPsgU7vm2++Of15UUCZ0n7Sf/Tv39906kC+kTfb2QPlQX0oSmUKmaO88XyTL5TEWPh83rx55rpjx44t8nZ29+7dMmfOHNOeUM6uMsF/lPd4hTIVsk6ZoPBjNXc0WR4CCidoECjXoWMZPny4EXZY7Nmzx1Qs9+HiQUCbDese8Ey4HTgWGg17WB0L0IjQ4NDwcO0wrGM4cOCAaUxpcFyvRFgeGa5NXrm2ayUg77AUqViw2ujk3E4taOg8aOT4D3S01PeiblS9oE1BcXflTMOK7Iu6E3chTzxftCt0HNQxcK1E6rwLHV6mjX1hUJ+4Np1LrGeC6+/YscN0osjCVa6KEjpunu3Vq1cbQwHvK6xZs8bIwPXCoOCh6BRlh07+aE/JO/l25eu2825dRza0va7XpKggT1yb/ixemcBoxHhDJrQ/RV3vqds8Wyir9J9ue4osqF8867Q9XD9VskqZoBPjYYsdXkDQVAS06zChcU/V/VMUUJlcq4yH3dVayX9YUP6zZs0y2iwVDddkGI0716FRpaLTuNHIFGVjmgjKF8sQxYnGhYcvtsENEhqbb7/91lwfxYI6XtQWUirQ4JLnMBR2F+oaliH55drInPIIAxp4Ojb32cILSkeGRzJoaMRdZYIGPt4ThXeA+hCEQrly5UrPus3zR4cThDLhQlmjsLjKBO2K27YgdzpcOrmglFnas3hlkfKnk0f2yIXYnSDAux6rTNDJ094h42XLlhllIijc4TxXmcBbgqFMPaOsMWQo+1Q8glmlTJAhCh3vhAvuMIRNJxMW3EfYygRwXYRMQ4eAwxpDplKhlcda5DR4NGpBW+l0KlikPOxYK278wtKlS08PdYUJDRsNPJZU0LjudR54F+oczwDlEgbUORTI2GcuDHA/81yjRAHy5nUYXhnKFk8MliEdLHV94MCB5h6CJlaZ4Nmic48dykSR5FkIwjOHNeylTFDng1Ym8LzGKhNA/sk7Qz8ocq6XoqhBaYlVJrgu7Z37jPEMUC54x4Iwnni2XGWCa9O+UwdoY+jMuTZtXxBtLfUpVpmIB8Waz1Mx1rNumAMtDu+EC50rhe02OmFgQ5mgEuPuRLBUrDBBI4+3iKnodKpBl7uryHA9Ghbkz73g7g3DK4M3hGu5DQtWGvWtqF2eXtCok9dYZQKPFA0rdTAMkC9yDlNZB5TGWE8AiiPlHsZ9kGfcu3SuWIYoFK61FjSxygTPPNZ47FAmnjEs1SAs9OKkTNDmuN4IOrQgiVcm6Djp0F1PHJ+jUKdqoadLrDJB2VPP8EbR3qHQIhNeh6FM8DrWUHKHgGj3kpF1ygSVjcyTaRp4OnU3CjcsqFC4odIZT/ILDxuWmduJcQ+kIDRlL1BkKGssQyo8Dx/KVFjXd3Erd3yDFxRuw0K504CjzNC5BuXyjIWypY5R1pS7G5QWq9QFjesGTaUxKUrcRo7nnXqOcoEnLCjrNBYa1thgZxQKGvUwZI4igTXqQodCOeClolOn7scql0UJ16JueykTKLVBKxM8Z64yQR6RgVvvgmzvOCfKohubQr+CvHnWeeYp+yCfOzwehQ1lMNQXazwXNRimyNZVJlBa3OedNodro0SlUu5Zp0wAHQoaK41s2O5XoFJT0WhkwoIKjQJDIu9u/rGawgLNnYeORj3sIR4XPAVYb0Fo6YWBpUC5U9409GG42l1o2LBMKXNkHqa8aUCQOdd3PTNhQl7JM3mnsQ2z3FEi3eE1puOGpbzieYg3jlBquA/KwZ1xEATUc5SZeKWJjobONUgPAQoL1rk7dIsy4bZzsSmIe6Ce4wWLjU1B3nTylDvXjf2sqCEeqzDDlM4er0gQShRgJCHb2PaUZ566RuLaqZKVyoSiKIqiKMUHVSYURVEURfFF1ioTuH2Ccv2kAkMdtojqtVXmdrBZ7ipzO2i52yGbZZ61ygQBImHOe48FgQe1Gl4qsDqgLQiQCmv8OB7GbokdsQEPGXOwbcG1bTXulLkboBU2jOWGPZMkFpvPGm2Mrc6FtjXsoFsXYjbcxcpsYFPmxISEEWTsBbPjCITNlKxVJijwMKKrvaBRt9W4QpjTYOMhCM5GMB4QWW1LkQGb5W7z2pR5EFMRU4G6FmawbTw2y502xpYCSdtqq1NDgQoz2DYe2+2rLQUSmfvpUzVmQlEUJSDomFq2bGmOaahffPHF0BabU5QwyVplAjcc03mYf55J8rPwE9aSn2szvcuPBsj0Ma/zppKY5udnsSembDEt1uvcqSQ/iz0xfcxPuTO9K1OtHwuRache500lMd3Kj4XN9DGv86aSmMbrZ0gQd7ufvPsZHsI69yNzplX68aQxNc7rvKkk1i1AkejQoYOpP926dZNGjRql/Oyz4mam12eqYSqrFhYGw5lMjfQ6dyrJz5oUeML8yJwp+348aZSd13lTSUzr9TM8xHToTNtX7pup85nCwnB++oasVSZYWOPiiy+WJ554IqP0pz/9KWNXGoX+xz/+0fO8qaSLLrrIzF3OlOuuu87zvKmkO+64Q5o0aeKcKX2eeeYZKVOmjOe5U0lXX321c6b0YfGUc8891/O8qSRknmnMBR3SOeec43neVNIVV1xhdkXMlFtvvVUef/xxz3MnS/fff79UqVLFOVP6vP7661KyZEnPc6eSqO+ZQof8l7/8xfO8qSRk7meRp7/97W+e500lUWY8q7QzxH1UrFgxrWXYH3roISlbtqznuZMlfsfvM+Wjjz6Sa665xvPcqaTzzjvPOVP6oIj4edaQGQZXplx44YWe500llSpVyjwvmVK5cmW57777PM+dLNE+0DZnCsaOH4Mna5WJTz/9VN5++23nVfrwoGS6twMaP5UmU9q3by99+/Z1XqWP3wf1gQcecF6lT/ny5X3tUcCDnimskNeqVSvnVfrwoGUaOIs1efnllzuv0ofG+d1333VepY+fDhmPTunSpZ1X6VO/fn2zsE2moABmCouE1axZ03mVPo888sjpZZIz4e9//7tzlD6smvjyyy+bYzq3Z5991hynih/FG6666irnKH24b7bGzhQ/5caqjyhDmVK7dm1jeGSKn/rKol9169Z1XqXPLbfc4ss7gCJki6xVJnr27Gk65UxBmaCRzQSs2xtvvNF5lT6Mm3711VfOq/Tx86Bi6ZUrV855lT5YV35WHT3//POdo/Rh2denn37aeZU+PKiZDrP4VSbee+896dKli/MqfS677LKMA+KITr/tttucV+nTuHFjs4xzpviROaud+vGqYJ37WTUy08YZN3vr1q3NBmGA7Lt27WqOUwWvRqbR9XRI1157rfMqfdq2bStffPGF8yp9/HRqGCt+DJ5q1aqdsSR5uvipr6wQ3LBhQ+dV+tx+++0ZDxHhPb300kudV+nD8EymfSJYVSb2/Hpc5q86ICdPiSzfeEjWbU09Ul+VicxQZUKViXRRZSJ98HrixXM9YY8++qjZ+yIdVJnIDFUmMoP4JD8zWawqE6Pn7JUS9ebLkeOnpPLrK+SFj1MvRFUmMkOVCVUm0kWVifSJ7RAJfr3hhhvMcTqoMpEZqkzYwaoyMWHBPrmj5SI5mq9MNHh3tbTvnfpiIapMZIYqE6pMpIsqE+nTu3dv0yEDHUwmQc+qTGSGKhOZkTWeiVFz9sh5lefI+Y/PlIqvLZf9h07IxLwzlYkOfQuUifcG/SwXVpsrkxcWHoiiykRmqDKhykS6qDKRPigP7DgJL730kvTr188cp4MqE5mhykRmZEXMxNyVB+TquvNl/baCmIiHX1wiL/fcIJMW/qZMNHxvtXT8crN8MXKb3Px0nuzYk7jhVGUiM1SZUGUiXVSZSJ+HH3749OJUTz75ZFpTQl1UmcgMVSbsEIoy8VrfTdK021rnVUGw5bQl+88Y5miUr0z87YlZ8g+3T8l/P/nUGFUmMkOVCVUm0kWVifSgfUCZANzGHGeyWJoqE5mhykRmsMaEn2XMQ1EmXum1UVp9tE7il5mPVSbqvrNaStSdL898uE6eaLtcTjDFIwGqTGSGKhOqTKSLKhPp8eOPP56upzwrrHuQCapMZIYqE5lBf5jp2ksQijLRb/QOuf+FJWYKKLTovlaad1tzVszEm19tkiNHT8nF1edK9yGJd41TZSIzVJlQZSJdVJlIDxZ8cmMkevTokfFiZapMZIYqE3YIRZnYufeYVOm4Qqq+sUIav7NKSjbOk/mrD8iYeWdODX3+44Jlb7+b/Iv88z3TZMriwjt7VSYyQ5UJVSbSRZWJ9LjnnnvMHgtQp04dGTVqlDlOF1UmMkOVicygjfOzK3MoygTsP3hChkzZJd+O3ylL1hds382iVXNX/mo8Fss2HJK1WwrWBT9+4pSJm1i7pfCMqTKRGapMqDKRLqpMpA6bmj322GNm7Jn1Jbh3NpjLBFUmMkOVicxgiCPT+gahKRNFjSoTmaHKhCoT6aLKROoMGjTIdMTAPg3sa5LpLpKqTGSGKhN2yFplgo2+XnnlFedV+rCLY6YgND8P6nPPPWd2Pc2UCy64wDlKH7bIZXe5TKlatarZHjhT/GyiM2bMGF8PKpuzsTBLplx88cXOUfq888478sknnziv0sePMrFhwwazW2ymtGjRQoYNG+a8Sh8/m7uh/KLAZgo7MKJMZUq6HQtKIwGY0KtXL1+bEV5//fUZbx2PEoIykilvvvmmfP75586r9PGzGSEKP0NFmfLUU0+Zdi5T/LRRKN3NmjVzXqXPXXfdlfEut/RLl1xyifMqMzKZdeSStcrE999/L5999pnzKn3Ylpn18pkDnm5iRzt36lcmsOEPDYXXuVNJbMmcKcx3//Of/+x53lQSWzovWrTIOVv6YLF4nTeVhDfIz/a+dEoPPvig57mTJfZZYBvwTPnyyy/lyiuv9Dx3Kokt7zN90Nn+Grl5nTeVhDKAlZ0pfvJNmae722YsDRo0kLvvvtvz3KmkEiVKOGdKDutKVKpUSZYtW2Ze33vvvcab5XXeVNLvf//7jFckRGn2I3OeUz8KJM+q13lTScgr0xkwwAZr7BDsde5Ukp8OGUMLRcrrvKkkZL51a+LJB4Vx6tQp0zd4nTeVRJm7sT6ZkLXKBIEifubE0sDOmjUr48TvM4UGAs3Z67yppEw1V0B7pbHzOm8qie2B2RExU7CSvc6bSpo3b17GQ1PA8NTs2bM9z51K2rZtm3Om9KGusg2113lTSZkseuSCErJixQrP86aSUB4Z5skUNrvyOm8qae7cucZlnylY6HPmzPE8dyop1WExGnKGBhjC5BnDC4UXj+3Pvc6bSqJh57yZwO+I1fA6byoJjxDrDmTKli1bPM+bSkJemXpkgLF/6o3XuVNJfjxZeA8ZVvM6byqJzeD8eAfWrl3red5UEu1TsV9nIgh4WPwUul+iem3KPdMGrihQmdtBZZ4YrOlWrVqZY2ZwVK9eXXbu3GleZ4rNMgeVefhkc/uatcoEFqof7dUPFDhR27bAurcF1rmf6UN+wHXrt4HOFB5wPxaLX7i2rUaGMvcTa+IHrOPt27c7r8LH5rNGG2OrY6Nt9eMF9ANesExd/UWBTZnjCcs0NsoveAAjOZsDV6KtQqdRt9Whgh/3o1940G01cDZlDjbL3ea1KXPK3gbUNT9DLH6xWe60MbYUSJW5HWzKnOFrP0PYWatM2MaWwMHmtaOMyjx6qMyjh8o8M7JWmWDuts1hDoLKbGHT3Y7L2eYwB0GUNuAhtzm0xbVtNTSUuc1hDj/Bzn4pimeNYEYXAphTtbppY2wOc2S6PoZfKB8/wc5+sdm+Mrzjxzvgh8guWoUbzlanRqOe6ZStosDWQw5E+9pyfyp2oEO31cBR1/xEmPvF77M2YsQIeeSRR8wxsxRYjCnVBps2xpYCSdtqa0gRBcqW8go221fybUuBRInz06fqMIdSZLAQF/PyWVcgiHTVVVeZ5PVZGOnqq6/2fD+M5F6bhbeYIqsUfwhcZf4+K8aiELHmxTfffJPVrmxFKYysVSbQ2v3MP/cDmiPzqG1hc4iFBtLLTcuCPTVr1jTrZ2DJBpG4BtHOXp8FnegM1qxZ4/lZGMm9Nss1s4JqmAFquLxteQewlGwNbYGfZ23s2LFGVrQXrBNSq1attCxu2hhbViptqy3vKx4Rm0NbNttXhndseQGZvVPstyAPAhoZW64wLAtbigzYihUBKpxXZZ85c6aZXx9kA0QHanN4yc94ol/caxOzwkZSKFZhQZmHqbzEQl2z6XbO9Fmjjfjoo4+kb9++5jXLLHfs2NEcpwptjC0vBm2rrWFkhrZsTUsFm+0rnbmtYWSMFT9Ggw5zKEUC6/i/+uqrzislSFgWfPr06c4rpTiCAlavXr3TcmrevLmv5akVpbhTLJWJY8dZBcx5UQhozn5cMn7A9WhzIR2bkc5YxPGBWVit7OaJWzdI0JxteYSwEG2WO9d2rVR2cwxTcaPMKXsbULdsWoqZypzf3XnnnaetzBtuuCFt7w5tjK1hDtpWW55f2hebQ1s2n3OGkW0Nc+AB9OMRKnbKxNHjJ+XGRgskb3VidzbuGFvuTx5wm5Xd5ngi7vZ4ZQIFg13+gh6CwO1qy/1JR25r9U3g2q4ygfzZTj0sFzhlbsvlTQdsc0gx02ftp59+Mp4JYM8DNhVMF9oYW8oEbautOBk6U5sKpM32lXzbGuZAefTThoeqTExetE9GzNotHw/bKuPm75XF6w5Ki/dWS7MP1kifUQUC7Dp4i/yh3Eyp+sYKWb7R3pQwJXXYw9/PLn9K+jz00ENnrF+gFC+Ij+jZs6c5JnbCz1bkipINhKpMtPl8vVxYba70GLpVxi/YK/c9t1j6jNgugyf/Itc1WCCf/bhNZizdLxdXmSPvDNws23cXPs8Zt6utYDyshTAD4OKx6RXBSoz3TDRq1MgoFEFj2zNhs9y5dqwnghgVdqkMA5ueCeqareFMyFTmeCLYPRLYPXTSpEnmOB1oY2x5JmhbbQ1t4ZmwGexs8zkn3+qZSIFXv9gg5V4q2Ot/6uL98peKs2XZhkOye/9xOXr8lBw/cUoOHjkhpZ/OkzkrEg9hRDlmwuYmODxosWO/VPwLL7wwFJc7jZutRob8FZeYCWDa4HXXXRdKZ0OZ2+pYUGJsKu6ZPGvI5PHHHzfyIhEwm8mQbJRjJmwOKdpsXxli0ZiJFGjXZ6M0/WCNOT6Z3y427bpGLqs2V/7hmvHSrvdGWbvlsBw6ekJuapJnPBRK8WfkyJHGM6GEC51sjRo1zHi8UrxgrZXy5cub43Xr1km5cuXMsaLkMqErE026FCgTExbslWFTdxmPRM8R26VS++VSod1yOXrspJR+emFSZYLG1FaAENaGTderzYA0tNdYzblhw4ahTXnDYrFlLSFzm+XOtWM9Exy/++678v777zvvBAdlHj+0FRbUNVvDmZCJzGNjJL777jtp06aNOU4X2phYmYcJbautoS28nbaC68Hmc45nwJY3Cu+jHw9kuMMcvTdKo/cLlInp+crCeU/NkfXbCirssx+tl9afrs8vyFNSsnGeTF2cuLOmstlyeSPsqK6AiRvOHeagkyEQMKyyoIGz5fKmUWf1TVtw7fiOZcKECWaJ5qDdopS5LcWdDs2myzuTZ6169eoyfvx4c/zSSy9Jv379zHG62FwBk7bVVoeO4mpzGDmqK2CivPpRpEJVJj4ctlU69vtt58X+Y3fKpRVny6XV5kr1N1c67xbEVqBQMOyhFF8IKmvcuLG1jibq0Ogxi2bt2rXOO4pt6Ahvv/3204F0xEsw7KEouU6oykRRwkOb7iIwRQUWoi13O9h0+6I4uNHGuHK7du1qjsMAjd2W6xVslrvXtamHeCZGjRrlvBMMlLkta4m6Ziv4E9KVOQo2MUSU17Jly4yyl2ngLm2MrWEO2lZbQ1t4Y2waKLbbV1veKGTup0/NWmXC9jCHTZe3zf32cT/SyFDpmzRpIhMnTnQ+CR4aV1vTtmjUN236zasWNlzbq2P55JNP5I033gi006HMbSnPKDI2FxFK91ljdVISMAzVoUOHjDsH2pioDnPYnDlls31lJonNYQ4/fWrWKhM0MnRsthKV3ev9MFJxuPbs2bPN/Pmwx7NtWWpQHK/NbpTMHGDII15WRZVs1jdStjxrdATNmjWTKVOmGNm0b99ePvjgA6MMeX0/WbJd7jZTtsi8qJNtmfvxCGWtMjFu3Dgzz75kyZKhpxtvvFGuueYaz8/CSDavXaJECbPPQOnSpWXIkCGONMIBK82W6xVsDrEkujZDTV6yKqp07bXXyvXXX+/5WdCJusb1vT4LI6X6rLGc/H/913/Jww8/bOopSt75559vlj33+n4qiWvT1nh9FnSibbUpc9oZr8/CSLbbV5syHzx4sNOqpE/WKhO24iVcbHYsNscTbbldgbFMW5H9eAZsuj+5tk3PiE1s5jvVZ61Tp05Ss2ZNmTNnjnTu3FkeeOABGTp0qPNpZthsY2zjxmXZwGb7atNYgqyZGlqU0KnZrHA2hW7z2ozn2WrcVeZ2oMxtKZHUNVtjyJBqubPVON4IYCGxJUuWmGM/qMztENX2FZn7aV+zVpmgwG1ayTY7NZvXpsxtVXaVuR1U5naIssyjWu5c21a5I3M/z1rWKhOsFGZrm1oK3GZk/4YNG5yj8CFAyJb7lRkFOswRPpS5rdkcuF0JDLOFzWeNNsaWIkXbamtTPYawbe6PYVPmLFRmyzPCglWRnM2BO8hWodOo25z7bnNMD0XCVgOH1m4zVsZmudu8NmVuy1qjrkU1Pok2xpYCSdtqa6hBZW5P5n761KxVJhRFUYo7WPgsLAZ0UkwdtbkLqqIERdYqE+zG9/XXX8vw4cNDTz/++KP07dvX87MwUu/evT3fDyN99dVXJkrd67OgE9OWBg4c6PlZ0AmZ9+nTx/OzMBLX5h68Pgs6UeaUvddnQSfqWv/+/c3x4sWLnac/PPwMZ2LZt2jRQt555x1jbTLLo2XLlilbf1FdtApPGMOptrA5hJ1o0SqGQH766aeznpGiSoMGDZLly5c7V0ufrFUmiJhmx8r69etbSVG+NpaW12dBJ66rMg8/FReZ33zzzaHHT/iJG8jLy5PKlSubKc10juzTkc54PJ25LZc37nZbQ4oMqdlc0tpWrAiQby8FEnnUqVNHnnrqqbOekaJKPGvTpk1zrpg+OsyhKEpWwNLULB+eLbD9eLdu3czx3Llz5YUXXjDHipIurF+CMmHLU5UKWatMoMHZ2ncegdqMNra5LwiR/bYsFsacbc3gwUK0ue0817ZlpVLmtoLSCMRz92OZN2+elCtXzhyHRabPGkMZrVu3Pr1KLEMc3bt3N8epQhtjq/OgbbXlHaDsbO7HYrN9xfPmNcyBEs3y7EGCR4b9OTLFqjKx78AJmbhgn/x6KP1IcRoZW9PVaNRtbTIGNgO4qHC2orxRYmw1cMjcliIDXNuWMkGZ21Ig6VhctzP/H3/8cbMPSVhk+qzRGT/66KOnx/5ZZnvNmjXmOFVoY2zJnLbV1owKhjn8dGp+sdm+Um/iZ07x7BFrQ8xUkGAw+DEarCoTC1YdkBL1FsjyTfam4iiKkh3QyL788ssmILS4s3DhQqNAAN68UqVKmWNFSRc33samNzwVMlImTp48Jfl/BhTn4ydYsexsDbqw90/k/5jPFq09KHe0WCQrNx8WL/07kVKOBmUrUAbXo003nM1FfLCQ/cxF9gNBSLaGtrAQbZY717ZlpVLmlL0NsMpivYBEnLdq1cp5FTyZyrxnz54mxgOGDRsmzZs3N8fpQBtja5iDttXW0BaeT5veAZvPOUN68Z6JiRMnmkDeoMED6WcGT1rKxNNd10iD91ZLuZeWSo+hW2X77mPyyMtL5bJqc+WCCrOlQ9+NRlHYvf+4VH9zpVxcZY5cUGm21H1nlRw4fEKO5SsQ73+7Rf5WYZZcVn2u3NJ0oTz44hL5ccZuOb/ybFm6oWDYYsee4/mv58jYeYV3HFR0W1OXeMBtrcQIUVUmcLvacn/SkdtUILm2LWWCMrfl8o5XJtjzol69eqHJItNnjcj40aNHm+Pnn39eBgwYYI7TgTbGljJB22pTmbA5pGizfUWJilcm2rVrZ5YDCJpQlYlWH66TGxotkL0HCsbMy7+6TIZM/U2DvO/5JTJr2a9GqaiWr0y43PnMIvl20i8yaeE+ubzWPDl0tOABafP5BrkgX+H4eefR/N8ulrf6F4yF9hu9wygah53vKYqiAErNk08+aaLbizNly5Y97UXjftevX2+OFSVd2JLdpiGTKul5Jj5YIy/3LJgnvW7rEbmo6ly5ru58ufnphXJLs4XyHw9Ml7cHbpbN+crB1xN+kXufXSylG+fJfz86QwZP3pX/2Sap17lgZz1Yuv6Q+S3KxMffbzXnwPh67JVl8vnwxNohbteoBuO50e02wEq1GYBpyxuFzG26Xrm2Lc8EZW4zADPeG/XSSy/Jp59+6rwKlkyeNSxbN16C4YKHHnooIw+D7aBbW0NbtC+2hjPBZvuKFy7WM8FCbffee6/zKljwRPmZ1JC2MoHXAZZtOJivCOTJzKW/ypZdR2Xb7mNGwdi595i0/nS9/P72KfnKw8+yecdReezlZTJw/E55vd9GafTemcrE7S0WyZoth+WXfcfljpaL85WQnVIqXwFZvy2xW5XKbsvlTcNgc4U2m1MUedBsdSxUdluzaGjUbQZAcW1bHQtlbsvljSciXombMWOG1KxZ03kVLJk8a6zaSfQ9TJ061QzLZAJtjK1hDtpWW8YaCqTNYWSb7SseiFhjjSGOzz//3HkVLCi+fuIQ01YmXutToEzsP3jCeBUGjCsQ+sEjJ+WauguM0nBjozwZMrXAct+ar2iUarBAhk7dJaNm75FLasyVPQcKNK9eI7bLxdXm5ishBRrw85+sl/MrFMRYWGo3FUXJApgdYcuYSAbrS7AEOHTt2lXef/99c6wo6YAiWaZMmVCnQvshLWWi5lsrpXV+h+8yMl85uCFfcajWYYVcV3+BtPxwnRw5dlJe77dJrqg9X6q9vkIqvrZcLq06Rx54YYns+fWEvPjZermtxSLz2eU155sYCmZzwA8zdsk/3z5FRs9Nbn1iHdtyw2Eh2ppJAjYbUayV+AChsMBisWUhI3Ob5c61bXkmKHNbQbdYaV6uV2Z0ZBLUmC6ZyPyuu+46vaZErVq1ZOzYseY4XWhjbMmcttWWB5L2xdZwJth8zsm3641iiIPls8PyTuEF9NOnpqVMbNpx1HgaYmGIYlLePpm2eP/pgEn+z1r+q3l/6YZDsn3PMZm74tf8SnLKzOiYsXS/+Wz1z4fNcAYKCExdvE/KtFxoYi6SQaHbcnkjXJurpNnciAY3nK1Ghk7FVtwCjbpNC4Fr2+pYKHNbC8TRuHm5vNlDgLn3QZPus8YGhARcooBx31WrVk17sSqXqG70heJqc0ZFcdnoC49WmF4tlCg/sSppKRNBsjZfKcFr0fFLe4JUFCV7KFmypFUL1gt2Mn7ttdfMMQpP06ZNrSliSvaCElmjRg1fG2+FTbFRJtr13ij1O6+WrbtTc6eivdmykLEQbbnbwWbjhKVoy1pC5rbWOwCb5W7z2pR5bFBYmODyLkzmzz333Om9L4oLbDfOds7ARl9s2a8o6YJnBmUiTA84HiE/w5nFRplIF8YTbU3PpDO16fJOZxvjooYIc1sdOh2qrWlbKJAbNxYEH9uAa9sa5qDMbSkzKK+Fubyx2i677DIToxBUuummmzzf90oPPvjgGXtw3HjjjXLhhRd6fjeVxLXvvPNOz8+CTrfeeqvcdtttnp8Fne644w6z3bzXZ2GkdGRe1Kl06dLm/3XXXSdvvvlmqPFpDHH4CR3IWmWChtVW4wq2rHOwfW1b5c51o1zutiiuMuczxrdXrVoVWEIx8Ho/Pi1YsMAEy7Vt29YEKTPWzfTVtWvXen4/lZTqtYNIq1evNsnrszCSzWvbLnf+U2/8BENmAs+Tn+c8a5UJNDZbswrA1hAL2Lw2bjBbHQudii13O0RV5pS5LWXGtsxTdfuyNTqKBDRq1Mgkvwsv2cy3TQUSskHmQWAz33771Kwe5rAV2c+DZjPiN6rDHFh8thazoWGN6jAHZW5rAaNEwxxhYPNZo42xpcTRttqa/o7ibHPhKJsyJ0bCljIT2WEO9UzYQT0TdlDPhB2iKnOb7Svti03vQFTbV78y15iJDLHVuILta9sqd64b5XK3hcrcDjavTbnbkjmozMPHr8yzephDZ3OEj87msIPO5rBDUTxrU6ZMcY5EZs6cmXJgHW2Mrc6FttXmMIfNfXBstq8M7+gwR8jg+rTljqJR13UmwgeZ21JkwGa527w2ZW5zqCGb+f7776V8+fLmmE2/mPGhKIVBv2KrfUWJ8aPIZK0yoSiKfegsL730UrOeQlDpoosu8nw/jOT32n/6059k0aJFRgmvVq2a/Nu//Zvn97xSNufbbyoOeWeFVZZHV1Ija5UJ3ZvDDro3hx2K494crOVft25dmTNnjvNO0YOlZEvm4GdWwbhx4+TFF1807cXKlSulTp06aT07DCnaAtna8r4SBFgctiDv3r27dOrUyRyHRezeHGGTM3tzpAsPZapjj0UNjbqt8USwuaud7hpqB65tS5mgzL3cn0uXLpUqVaoEuj8GDavNIZ5MZY4C0a1bN/nyyy/N68GDB8sbb7xhjlOFNsaWzGlbbRkNtC8291xxZb5+/Xq5//77zXFYkG9bwxwMZ/rpU3WYQ1GUjGAL8GeffdZ5pcSC0o0nYvbs2eZ1kyZNZMSIEeZYyR5YzjzTXV+jhi9l4pPvt0ntTqucV+HCw2rLUkRztOmCtLmgC5H9tiwWLGRbQ1tYiDYjzLm2LSuVMvfyCDVr1kx++ukn51UwYC1l4zAH8qIjQma0F+y1kK77mjbGlpVK22proTK8YMVhmAPeffdd6dy5s/MqeBhGtjXMgSfMj8fdlzLR9bstUqn9CudVuOCOsVXZaSBsTUsFW9MjgUbGVmVHibHl/kTmNjs1rm1LmaDM4xVIlAs2gwpaHnQstowGyPRZ+/HHH82S2kBMiTujIx1oY2zJnLbV1jAy7Yvfpcj9ECtz9shg47GwQHG3NYzMM+1nSNG3MlH+1WVm+/Aq7Zab/3Dy5Cn5fPg2mb+qoLM/evykdB+yRdZsOSzHT5yS1/ttkirtl0vdd1bLik2HZNe+49K+z0bZd7CgEI8dPyVv9d8sC9faURYURUnMmDFjzOwExZvXXntN+vTpY46JncDCVbKTBx54wMRPKInxpUx8NGyb/PtD040iMCVvn5Rts1Qavr/GKBP3Pb9Evhyzw3zvwJETUqpxnoycvTtfSdgkDd5bLdMW75NuQ7ZKmeYLZdmGQ3JRtTkyeGqBRjh7xa/yxydmyZqfC9eM0aJsWam4Hm264Wwu4oO15BWMFwa4vG1ZqViIuCBtwbVtWamUefz6Ho0bNzbTQoMGj4itoS3I9Flj46/ly5eb48qVK5s1JtKFNsbWMAdtq9fQVhjgmbDp+Y2X+dtvv21mdoQBHkhbngm8UX76VF/KRPd8ZeCOlouN8gAbth+Ra+svkDVbDkn5tstk4PiCDvdgvjJxR8tF8lO+MlGpw3Kp+/Yqo0Ds3Pebu7xJlzVSteNKc9zqw3XSsnvi+b1UdFszKnjAbXYsUVUmcLvacn/Skdssd65tS5mgzGNd3jT2l1xySSjDXdmoTFAujz/+uDmmrahQoUJG7mPaGFvKBG2rTWXC5pBivMxRBJFnGLJgiCWSygTDHFVeL1AAYNf+43JZzXkyfel+qdhu+Wll4tDRE3LnM4tk/IK9ZuiiRocV8v+7Y6r8v7IzZOC4nXL46EmZuWy/UUQ2bDsipZ/Ok2lL7E29VBSlcFg/oWHDhs4rJR5iJFAgYPXq1fLoo4+aYyU7YU2hWrVq6VBHEnwpE90Gb5UHWy91XoksWntQLq81T7buOiqPvbJMvp1UMGxBLMQNDRfID9N3yVtfbZaffzkqeWsOyuffb5XrGiyQMXP25FtdIlU6rpTqb63MVzwWy8EjibVA3K625p9jIdq0lmxq7VgsYVikXmClRjXo1nYwXmwAZsuWLWXgwIHOq2DBC2bLAwmZPGvESLz33nvm+Ouvv5ZXXnnFHKcLbYwtmdO2xg9thQWWuc2g23iZ094xc2n48OHOO8GBF9BmAKYfb5QvZaLH0K3yv++bJn1GbZc9+49Lg/fWmHgIqNt5tTTqslr2/Ho8//Md8s/3TpXRc3fL0x+skbrvrJIDh07IgtUH5J5nF8vyjQUZ+HDYVvmfpSbKxz8kn4JHA2fL5Y27y+Y0QZurbzKOGx/ZHxZUdFsdOo26zSm5XNtWx0KZu40M/5988kmzomMY0KHZnL2UybNGjMTkyZPNcevWraV///7mOF1oY2wNc9C22lLcUSBtDiN7yfyTTz4xi44F/QwyxGLLWENp96PE+VImvpu0S577aJ1U7rhCrq0xVxo5igRs331MHnhhiVxbc5606L5WXvh0vRni2H/whFR/c6VcW3ue3NRkoYyd95tCMGPpfrmw2tz879lb8U5RlMKZNWuWNGjQwKrlWJxB+WF9CcqHTpHhjry8POdTJVthf5UaNWpYC/rPBnwpE0UNwyAoGoeOJtfGsY5tzYNGO7VZqWy6fXF/2nLD0Tj7ccP5AZnbLHeubcszQZm7QbdYaB06dDDHYYCVZms4E9KVOfEkrHbJfS9evFhq166dsZVNG2NL5rSttjyQtC+2vCLgJXPuiaW1iYEJEvJtyxuFIuxnaKvYKBONu6yRi6vPPcNTkQgeNJuR/TZd3jY3nGKYw+1YwoYGzmbcgs3hJZvXpswpe+TeqlUrsyBTWHBdmy7vdDfV69mzp/Tr188co1h07Ngx484BmdvqWIjXsGUwocTYXGG4MJm/+uqrRr5BQr5tGWsoUX761GKjTOCNOJQk6DIWKjrjtpo0aQonTZs2zbjtbTb0xRmsOrwSlBO0a9dOvvrqK3OsZD/z58+Xxx57zPPZyJVkLWbCJhMnTjTLnN57772hp3vuuUfKlCnj+VkYiWWMvd4PI912221y9913e34WdLrrrrvk9ttv9/wsjGSz3G1emzKn7FkJkN0vwwTL3I/r1S/pDKv98MMP8tRTT5njhQsXykMPPeRL8cIrY2uYAy+UrUDA4izzt956y/MZKapE+0r/4vVZ0IlYH+pwpmStMmGzsgEPui1sjiHbcsEVB2zFa4DNa9uE58zmYmEbNmxwjhJTt25ds+olcRJt27Y1jbPfqYS4220NczC0ZStGiGEOm7PlUpV5ENiKU3Hx085krTLBQ2brQQObnaotiwHIty1rietGVeY2r02Z25R5NjxrK1asOO2FWLduXdqxFl7YlrmtZy1bZB4E5NvWs+ZX5lmrTCiKoiiKUjxQZUJRFEVRFEVRFEVRFKuoc0JRFEVRFEVRFEVRFKuoc0JRFEVRFEVRFEVRFKuoc0JRFEVRFEVRFEVRFKuoc0JRFEVRFEVRFEVRFKuoc0JRFEVRFEVRFEVRFKuoc0JRFEVRFEVRFEVRFKuoc0JRFEVRFEVRFEVRFKuoc0JRFEVRFEVRFEVRFKuoc0JRFEVRFEVRFEVRFKuoc0JRFEVRFEVRFEVRFKuoc0JRFEVRFEVRFEVRFKuoc0JRFEVRFEVRFEVRFKuoc0JRFEVRFEVRFEVRFKuoc0JRFEVRFEVRFEVRFKuoc0JRFEVRFEVRFEVRFKuoc0JRFEVRAuLkyZNy5MgR+eWXX2T79u2yf/9+OX78uPNp4Rw9elR2795t0qFDh+TUqVPOJ2fC9/bu3Wu+x3VShfOdOHFCjh07Zn538OBB+fXXX821uGfgvV27diW9Z87Fb/hObHLPzTk5B+dzz81n3Pe+ffvMcWH5A37DvXJO/vM69r3YFPt5onPGc/jwYSMj7offesF9rlixQmbNmiXr1683v8kU7o1r7dmzx8gwSJDrypUrZc6cObJmzRpTRn44cOCAbNiwQbZt2+b7XIqiKIoSizonFEVRFMUHGOA4HjBcMQCnTZsmP/30k3z66afyzDPPyIMPPiiXX3653HfffdKtWzdjICYCg2/AgAHy6KOPyrPPPit5eXnOJwVGNIY+BuLWrVvl66+/lieffNKcu3fv3sbg5XP+8x0MdsAYxhkwffp0+eKLL6RHjx7y9ttvS7Nmzcx1SpUqJbfffru89tprsmzZMuPseP/99+Whhx4y97xz505znnjI++LFi80527VrJ23btpVGjRrJPffcIzfddJOULFlSbr75ZnOed955R9atW2d+Rzk1bNjQlM/cuXMLNdBxjowcOVLatGkjderUMalChQomzzVr1jTnaNKkiUlPP/201K5dWypVqmReDxw40DgckoGh3aVLF3OPb7zxhik7oOww7N0yRW6tWrUyeXv33XdNObmfkVzHDvLjuosWLZLJkyfLlClTZOrUqWekPn36mHpx6623yuuvvy4jRow46zskfrtgwQLZsWOHkSH3hKNh0KBB5h6Q4XvvvWeOken3339v5MG9rl69WlatWiU//vijNG/e3NSR5557zjhX+Izz8Dn1yHWAkXAi8d7atWvN57GJ8/bs2dPItEyZMvLRRx/J/PnzT1+L5J6X33PfQTtfFEVRlNxBnROKoiiKkiI4BzAYO3bsKE2bNpUWLVrI888/L6+++qq0bt1aKlasKP/v//0/+R//43/I/fffL3379j1tkKcCxjC/qVu3rjGEf/jhB2O8f/PNN/Ltt98ao5RrY9RjpP/lL3+Rc845R8qVK2ccGTgXuBeM0O7duxsDGTAQcZpUqVJFzj33XOOQ6Ny5s/Tq1UuGDBki48aNM9fZuHGjuQeMS/J1xx13SNeuXY3xST74fNOmTbJlyxZjxGLY4xRp3LixcRy0bNlSypcvL1dffbUxhl944QX54IMPjKODa+GUwADGyOUeX3nllYTOGqIVcFDwHYzewYMHm7zefffdxmmCoe0axdzfl19+KWXLljX5pOxwGiQCI5x7oCzJB86bCRMmmLIaOnSovPXWWyYPOEdweNx4443yt7/9Te666y7jGCEPlNNLL71k5EZ54LDBoYDjoFatWkaWfBenDYl6w/UuvvhiI4t7773XfI/z8znfJTVo0MD8FufFzJkzTbnhcKIO4Jihrr355pvmvrnHO++80zg7+C154r64v2rVqhnn0/nnn2+cCnxOfnDmUH+RC44EHCs4W8g353/ggQfMd15++WVzPhxP1C/yyr1yXpxBXKN9+/bmc+oe90Ld5TfcKxEWiqIoipIK6pxQFEVRlBTByMcQZqQbo378+PHGcOzfv78x2BgNx9AkosGNNmC0G4OXEWyM+8JC4TEQP/vsM2PkY9C7Bu4jjzxijMIZM2bIzz//LEuWLDGOEAxODEQM9nnz5plIAYzDTp06mWtxPjcKAIOZ32MYEyGB0cmoNwY+iQgKjFEM0eHDh5v7IALhhhtukCeeeMI4HTCUcQrccsstxhlB3snj8uXLzbkZ6SdSAIMeB0K9evXk888/N9/D+fHdd98Zw/app54yURV//OMf5a9//as5H+VGwtglagSDFmM8HvJev359qVq1qomoIF8ulPNXX31lzkM5MGqfiEmTJplywKlDeXHv5BOnCgY7UzfIG5EIJL7PtW+77TZjeI8dO9Y4f0jcF44JnAfxkA9kTnLzRDQM5YmTgnJx6wqfk4/Y78aCswVHFfJHblwTcJjhaMBRQCQDjiOiIUizZ882jgPkSGQIziWcbNwrjii+69ZJ6le/fv1MHe7QoYOpV0RjIDccDpQVTg+u/+KLL5r/vMYhwXdwUvB7yoToG65RWH1XFEVRlHjUOaEoiqIoaeIa+0QwMGWDEXCMPwxzIhIwFDG0Mfgx8DHqcTTg2PCCKRdEOlx33XUmEoLoi//4j/8w0yKYcsC0EYxVjEcMfpwSOBRwCGAAkjA6uQbRDhjPruEKGKNEBWBE4vxgdJzvuwnjnPvFOMcoJerjiiuuMKPsRFTwe/5jtFavXt0YvEQ1YIDiEHj88cfN94ksuOqqq+T3v/+9iTAg7zgiLrnkEhPRwHeXLl1qpjUwjYJ7mThxoomKIJ9EXTD9AyeOl3GOkwCnBw4C8k+Z4QgiYoKIEiJCuCbfIZKBz4gswHmE84H7xcFEuRGZcMEFF8h///d/m/L+z//8TyPDUaNGmfIkf6wJgaOEcl+4cKFx7lC+GPlEgfA+ieiO2OkL3DvRJjiVLr30UhPhQjmULl3aRC8QWfJf//Vf8u///u9y4YUXmnvmfT7H6cR94bihHjFdyAVnAtEI1DtkjOOHz3Ho4GjBgYCTivLFUUEZ1ahRw0zBoJ5SbpQ5jjQ+o64SfeKWNRExlBURHMjDzReOGsoeuZNvprRQv3if94jgIAKE+o5MiEhRFEVRlHRR54SiKIqipAkRCRixRB8wB59RbKIOMOYZuccYJEKAUWQMOAxVjGSMVSIdMPoKA8MZBwGj1ERQcA7Wr8AoxSjGsL3yyivNKD5GKlEMhPhj2F5zzTXGoXH99dcb45tRdML1GY3HmYLRftFFF5noCZwMGK4koiQYxcfpwTEGOA4FjH3Wz8DYZISfczI67hqf/CfKgnsh/4yyc8+PPfaYMXAxmokw4XdEOxCVQdmNHj3aXIsRfXddCL6H4czvC3NO4GBhvQmcIDg3mBpRokQJM3qPUcy6Cx9++OHpiBDWY0AeOErI15gxY0xZuCAHZIjTBscJhjmvuU8cNkypwPHCNA4cTFyTqBCMcNae4H0SvyeCBicOUOZED2D8IyPuOxbyzPs4hIh6iIf3KHucCERluIt0EgkxbNgwU7fIO3LGqUF9QP7IBkcPThUcYUR+uFNecELhzOBeyQvnxtHgnhtwOLB+CPWE8ouVAXnAAYQDhHKlrMkD94kThakwiqIoiuIHdU4oiqIoShpgzGHUYox+/PHHxsjD2MeYx3GAEc7UCtZZYHSbaARGqTFi/+Vf/kX+1//6X8awZQ0JRvKBUXoMZwx2IiYYyccQJlKBtQQ4LyPhRBlgOGPsM1LNdXiNIck0AUa7cRhgdBIdwag6YfXuWgIYnRi2fB+nA84E3ifhbGGqBPlijQfe4/6JBuE/jgP+cw+ugc+1cAYw9QQnAHllvQKMZvJLvjFgMaD5HAcE52Zkn/sg0oMoBWAqBefhehjS8RBdQoQEhjUGMlMjcH4QzUA54ACKh2gJyhCHAk4hN7ph8+bNxrjGsfHP//zPZj0Grk0icoGyx5nElAfyyrQLIijiE+8z1SLW4QEY9TgVcJrgDMJhhOMKRxKLU3JPRJjgYCBahDpEPnDoIFvKizqAAwknh+skIHKCaBCmVFD3iKgBolpwZhGdQvlTF/iP44k6RZ0k4UhANkT6cH2cSDgaqCfUayIiKMvKlSube8SRwblwfnEe6gBlSWTHP/zDP5j0hz/8wdRF1vngGu71cbBRp92pRYqiKIqSDHVOKIqiKEoaEI3AmgaM4DOCTsKQw6hjygXGOJEHGIKEu7sGP8Y0hibGPSPQGJ5ERGC8YRhizGJAM2JPlAPX4TesV4GjgDUoAAOb6AKuz2g/RjlRDRi3GPuuwyMWjFhG8Yk4YLoAo+yMdhMlgMHP2gHkg3tnnQGMYe4JxwdrMPzbv/2bccBwnVhDHOOd6Q44WojwYD0EDGecLxi4XJN7ZDSec3GvOEEw2pmGgHOEa5GIfOBaTOvwWi+CiAE30oNywunCvXBNyhoZYAxzT5QBDhjyi/FPxIAb1QA4l3DgcH2iODDuyTfRAdwnzhPOi8OEczPdBsMbZwv3TcLRg8MFZwY7lTAlIhbkRLkzjQXZUU5cB2cAzgecVBj3//iP/2iiMygn7oHvIXd+xzlj19Vw15yg/ChbnAk4d8g38idRTuSJiB6cQUQ0MPWC6RuUGw4k5EO0C/knsgKnBzLg/qibfIe6TB3knvitm6ibnAdHCmVLHaYsqeM4dHA64YzBOcGUl3jHjaIoiqIUhjonFEVRFCUDMHYxAjFUGe1mdwiMXhbLxFBmhBzHAiH1GN4YbTgBMM6JAogHA5LRfAxjdshgJBzjmGkTGJ0YpRjeGKQYj4xmcy5G73EOMCqPYc9rDFqugTFLVAbGLsYkxjoj35yP3+AY4bsY5RjeRGcwrcQ1KDE4MUCJLMAYxwiNhd/jfOF8OGTYLYK1J1hz4rzzzjPXI4ICxwcLJuJkIV8PP/ywyZs7pYOyJO84AshvrCOB+2eaAyPzXAMjnukNsTDyT/65Nk6Uyy67zBjIn3zyied2opwTJwSyw6mEsY1jh3LF0YAMWMST/5Qz7zPVJBbugcgNogaQdfznLlyL6RKcCwcHTiUcU+SFaAQcWEQaUEaUIw4gnBJutEQsyJ97RSY4mYjKYL0KnCdEe5BffktdwtFEZAT5cs/HfeDYoi4yxSjeocK1mWrCdJbYiI1YeI+pI0whIRrEnZaC4wIZUE9wwMU6VRRFURQlFdQ5oSiKoigpgqGJcwBDEwOTkX5GsTEGXTBqMdAwfJk64cLvMEQxQpk+wMg3I9Pubgbujh/8Z1FDDF6cGoyEE+GAYU9IP4YsBi5GPBEGOCFwXOB8YLQcoxmDEeOT1xicOC3c0H4MSEb8STgKuCfWY2DBRML2MSwxTDFicSJg4OLQYB0NvkeEBE4YwInBMdMk2B0EA5V1JHBSMDqPUU+kAKPrGLwsOIkxz70xqu7CFAl+x0KcRFlQJhjBjOpzf9dee625X0b6Yx0XOF+4X6azcO+ULddmygL/mf5BmcUuKgk4EihTyoyFM4lWwdAmIgbjn1F/rst3WIvDXRuCe2bKCb8n0oUywslAPt2pKERMMHUFuZFPIkjYkQQnB2WHs4QIEhwROAlwkmDIu04sHDSckwgRHAtuxAnfwTnBriFM6SBfrGdSGERtcD7KlTICIiSoE1yXKTqxi6YiR/KMDMh3oukYyIvpN9RFojYURVEUpShQ54SiKIqipAiGJ4YehhkGHAYqBjo7GTCSjGHHaPaf//xnY3wSaRA/+oxBiJHNqDvh/kyfwMGAUc6ikkQuYPxh6BPaj2FKlANGMmsk4PjAIHSNdJwRRC/g8GA0nTUFWP+C0XUMW0a5CdcneoL/fBcjmQU2iZggbB/DG6OckXfuG8MepwSGO/fi5pHoCpwUGP2ci7wQycB9Y+wyJQCnC+ttUD5c59133zU7VTA1hPUzmGpAdAfXbtOmjVlDggUduW8iN5jWAOSP6AqmH+BcYXFH3uN3XB+Dn4gB1lkgSoDyw9nDlA63jLkvHCtEF5C4R6Y54IzA8Cdag+vhBCEfRL3gPMDRwPuUB9dAnjgXmApD+eB4wmHBPfzpT38yDh8cNIBTAEcS1yZShvPimIrdUpNzEzXBveFYcp09QB6pF+SH6+D4QI44C6hLyILvUBe9IhviwaGCs4tzMQWFKBicakzBcCN4+M93qFvkkYiZWKhDOGKICKK8yTfroBDNQn1VFEVRlKJAnROKoiiKkgY4E0ixMKKNQYzRiRFNuDxrAcR/rzD4HiPjGJ2xRizwGefinCxAyXfiwWDFwHRH9vkur3k/nkQGLQYvhjIRGeQpHu6RnSD4jnuvOEeIYOAe+Tz+/oHPMfpjp2Mwik+0BU4TjHc3b+798d8tk9j3+B2RCxjM/HfX7CgM8oHDgCgDrsE9cE7+k19+y3m579jz8B5lSEQDifvntZvccuB97sn9Lf+JsCEVBvlCVu79e5UZcC6+ixzdMkgX7sNd+4KyJqoDB07s/XEd5Me98D/+ftz7xRmHA4h6Tnnyfa86piiKoiiZoM4JRVEURVEURVEURVGsos4JRVEURVEURVEURVGsos4JRVEURVEURVEURVGsos4JRVEURVEURVEURVGsos4JRVEURVEURVEURVGsos4JRVEURVEURVEURVGsos4JRVEURVEURVEURVGsos4JRVEURVEURVEURVGsos4JRVEURVEURVEURVGsos4JRVEURVEURVEURVGsos4JRVEURVEURVEURVGsos4JRVEURVEURVEURVGsos6JkDh16pTs2bNHli9fLjNmzJCpU6eaNGvWLFm6dKns3bvX+WZuc/ToUdmyZYssW7ZMNmzYIIcPH3Y+yT1OnjwpO3bskEWLFsm0adNOyxz5L168OKdl7tZ16rebb8qA16tWrZKDBw8638x9KAue8YULF8qmTZvMM5BrkCfytmDBApk5c6aRtZtc2c+dO1c2b94sJ06ccH6VOxw7dsy0Z7Nnzz5d36dPny7z58837R1tQa5AX/bLL7+Y+uzK15Wxm8g79YDnnfYPuedSW08Z7N692/Rj5HXKlCmmDGjbKRfa/VzlyJEj5lmnbsfKHnnTzu3bt8/5ZvZz/Phx2blzp6xYscL0W/v373c+ORPav59//tmUiftM8J82j3aB82Qb9NEbN240MiVvyfLAM0H5rF692vT9tBHZ2O7RP+3atUtWrlxpUmF6GuWzbt06mTNnzunnH5nzev369Vkp80OHDplnG5nzn34tHt6jPaevp+1z67vb323dujXr5M790p4jb551dLZUoK64eg91nnPwHGQT9MvIk76M591LP6VNp1zQb1yZu3J3ZV/Ubb86JwLGrfQ8tMOHD5cff/zRVGSUFxrAvLw8897IkSNN5aZxyDV4WEk05iiqQ4YMkW+//dZ03LmkyLgg823bthllDdlOnjxZ1q5da+RNQskZM2aMDBs2zCiz27dvd36Z/dCoU9d/+OEHU9+p63RWPAPkk8bt+++/N/mnY89G5SVVqO880z/99JP0799fBg0aZMoj1xwzyBBFFAWN+s5zjUFOXSAhexJKHh1htnXeiUBRQxEdP368yTuKKc8++aZ+8777nPPs5wooMLTdrmzjE0oOCst3331nnnUUuGxU1uOh7iLHefPmmfZt3Lhxpj3HgOV9lNvRo0ebPg6Z836ugFOCuk6ehw4dKpMmTTL9GvIm764uQ9vPcWGGfHHH1Veo4+Rv1KhRMnDgQJkwYcJZfTVlQl2fOHGiKROe9zVr1pjyoM5TRjz/KPD0g8W97eP+aM9pq2nL0NOoywymkFcv3N+QP/JLWdHn0f5lyzPvytxtz2mzyAd1nXzFQv/Nc853RowYYfQd+jueA+oH/R/PADo9Bl9x1+ld+dGe067RZpN4hmPvHUOcus5zQF3nP44o+n7yTr2nvKjvOKV5rzgTK3PyNXbsWCNz5IqxngxkTRs/ePBg+eqrr0w7wTPPOYs7bt5po5Gza5Mh/3j9lPKhj+OZpozc/i5Wv+M/5yrK512dEwHDw03DjiKD0oIXPbby0uDzUFOxaeho9HJlhIkGj06axpqKTf5ouL755hvzQNOoZ6sCk4gDBw4YI5w8oqxgrMRCI08HSH2gkadByJUoCpxudEx0XNTl+MaKTpwOjM4P44VGLRsa83QgzzznKKTUe+RMo079z0XnBO0VSjx1HdmisPDco7TwH6XHyxuf7dBpM5qAfJEzjlc3zySeBT7HaeM6KAtT8HMFnmXyThtAfacdRJHJlWecPs01XujLeJ5j+2vqBCNIGCfkn749VyKFkCP1mHxjuP7666/OJwXQrpF3HBTknbqfTW0dsqU/Ql9Dvq6jBaUdnYXnON7ZRN/O+zjcqfPx+gzno6z4nLKjTeA6xQ3aJQwrjC1kh76KbkK+KQOM7Pi2i9e0afT1lBUJnQcDz9V1i7tzgnaJ/ol6S9/lyhz9hMEEnE7xDinKifxh0PH8x5cLdYD3KT/0esqoOPZ/3BMRMQyixcucZ5znILZtQ5YYppSJ16Aa5+M3/JZzof8Vx3wjc2TEwJE7qEBC5uSd99BTC4P64rYROKCoN/T//C/uzgn6J5xttFXcM3JybTJkT9RffJtNG4atRl3md+5go+uUwt4Jok1T50SAUEnpvGi8abQJg0GgsSBUOiwMGSoJBhuvcxUeXgw1HgScFrnqnKBDogGjg45/2FHeUVjo3GgcMOZyxSEVDw05yjxlgRPGVfowWiiHXIPnm7zR2dOQ04FT51FMyXcuOifovHiWeaZR5OnE3LA/FBnqOMocCmAuTWWi7XINDxRa2m9kjKxpx1FWeI/2n3YgV59xFxQf2j3XEY0im4tOKQYcYp2P1HGUN3f6HnlHwaUscuVZR5chzzzH1HeU2PgRYWSNMwaFHX2H9i/b23j6L2SK4eI6F1zIr+uIcg14noFYMFzdUUfaQb6TLXUCWXLP5G3JkiVnGeHx8DmjsLR59AH0+8XdOeEF8nFHxHm2YweXeA5wUCFHEv17rPMR+RMxgo5LX0gbgU6QLQ5KZEZddZ/xRH0WsiX/OCH5Ln0e9QUdjzqfrL4UJ8gn7ZU7oIjTJh7yS5tOv079xvmCbNFtKTPeJwKjODsnvOCeabPR3+L1U+xT2n3yRn3m2eaZQNbUbWSNzDkm2qQoZa7OiQChQcIwQYAYoiiyKPLx0AFi0NAJ4MWM987nClR0Gm4UnFx2TniBUUbH7daF2PqQKyNrXtDQ0bnT6SF713Cn80aZp65nowITD/lEWUG+NN406C504Ci2NOJ04rlmsKGQ4UFntAGvevwz7Y4uouBTNnwnXonPNlBAMLzopL/++muj1NCe0Za7uB27+8zTtvObIEYZbEMbhpOVth1FjVGpXHiu40HuKKS05ShsKLI4JjDkaN8w4ngP5RVFj/Yt25TVwqBuk1cUVJRZ8hvbd9HGk2+msLn9e3EP7U4GsnbbrnjnBIMQrjFOeVD/49u1WB2Q5wJDrriH+QNtFPeKszVV5wTtPgMQyD6bnRPoZDikvJwTXlBWGHgYaPTxRFxQH2gTssURBbRT1GH0s1SdE5QVRiltAfUFRzxlQPlhyPOMZEP7R9vmOqS8nBPocPTfyDW2n+f5Ru8jz/QHXk6N4o47oODlnEB2vCb/5I3+LLYdQJelryf/tIPUGdqBopC5OicCxu3cqPTMx4uPiqByo9TTCFI58N7xm1wkSs4JHk43QoIHF68jDT7KHe+jxGRDo50OdGQoMSgmdNTU6/g80tDFjzZlUwfuBY01RigdM0osdRulDrm7jbYbGsx/3qN8UGhilftsheeafBRmdPOMo8RT/6kbtAHZNKpSGOQLZxttO20aRkg8GCLknbpOG08HnwsyjwVZouBggLlGWi5GTADKNgYYdRl5xs9Npr1DgcNpxXdyySFF3pArdRg9BSOGts5ty3m2cTpzzH/qQTYY4olI5JzgOWb01G3jcbbHOyfc/o7+gPLi++qcKN6k4pxAzrR5GLLIHocEdZ6+DZlnYxvP812Yc8Jt19BbkC3RAvHTuvgOz0esvcNARDa0fYmcE3xGH86z4Orxrm7Hs8HAA/IncYwugJHvNRBdHEnmnKAukziOh/cpK3RfngO3v/P6brqocyJgaNBp2N0OnA4s1hvJA04jQMWncUPZycaGLRVopKLgnEDmhLWRTxowGjaU2lwH+WJw40GmruOIic83I2nI3VVgcsVQTQQdNB01dYFnPZfyi8zdUFA6ZmQeq3zzOZ0XCgufo/TlytQO2mlGx8g7HXN8e+Y+D7TrKDSUDZ8XRcddnMCAw3Bzo0PcUaVcxHU2IU/adxQ75OyCbOnDXWUN5zT1PRdkTtuNcYKhzvMc/xzzOU4L2jkUfepFtuc7kXMCXGOMzzFq4h3ytH20/dQX6kK8QVdcoU6rc8LbOYHxhVMambqh/LFtQLZCvU0UOeFGCrm2CvKNzTf9IYM0fOb2BUVlqAZNssiJwsBJhfORMsvFyAmOabcoF/q72Ihg4HMGGMk/9QLna7yDNlPUORECNOqMqtGxUwHovGn8eBgYaeJBdjvzXHVMAA0ZjR+VmFHkXFRkaYgxRhlFZAVfGnnkzgOO4uYm8o7MMVioG9k+wuSCMkI9RkmhwaN+o9SRX+o8skdpp3Pne7nQqScD5YX6QANPPcg1RxWjqSjlKOG0b+QVeTN6jKLCe9QDHLMYMNlusMRCR4zy6iqrKPIYK+QfA5W2nbyj6GeLYZIqyBFFnjrNiBLPNk7ZRKHAuQBGGEoYyhptGfWduo7MMWao77R9KG255HxHN8EhQduOrNFj3LadPo7yoA3AYZcr/RnOB4wVpqpgfMQbqvRf6DAYKBjkyJ7vUSaUDa9R3Hn+s6ndJ1/kiT4Lx0u8oeoF5YBug25HO0g9yEbnBH0Uz/GAAQPMs03f5kJfh6OGMnEX/iTPtP/x+h3/aQPQc7KhHGjPqafUWdpznvP455jXDCi5gy30727bx3NCf8dzQPuYTfWddo3nFZlz/15RkF5gnGPQk2/afBw22abf0GfTj/Hceumn9GGuAwYdx23z0XN4j99SH9Bzi7LvV+dEiNBAIWjCo5jDQ+KYRj0bG/FMoHEnvyi1PNi55oyhYcJgQc54jemYUHBceccnPqcxyDX5o9yQL/IXn1+MtCg4JVzc+kAHSJ3P1bzzbJPH2PaNus+znusGK+0Y9Tq2vpN3FN1czjt1m3wjY/5HpR8D5Eq+Y9t3jmn3c1nmXnWdRFnQBuQS1OdU6jf9PjLneXfrg1sXaPOzEfJDe07CKE1mdFEvyCtlhY5HXcg2Qw3c+k0+6LdjR4Lpu93nnvpPXxf7/Mcnvsf3s6XPZyA1VuaF3bfb18e3fdT/bIwMReboq14yTwTlQzlRFvwuG9s/5BVrk3nJnOeY8qE9i5U5zwD5DqLfV+eEoiiKoiiKoiiKoihWUeeEoiiKoiiKoiiKoihWUeeEBQijIfwpW8P9MoXQIDd8iDCqKBFlmRP2hcyjFPINhPiR7/g5fLkOMnfDYlMNj8wVyC/5Jv/ZGNLsBzcsNtdC+5MRZZnTn2VrKLcf6MuQOX2byjwaoLMSvo8Omy3TNIoKpi4g81yeruYFMkfepKjZLO40NWRvA3VOWAAljlVdaeiiBA0685VYMDJqRgsdOjJHoYkSKG7My0TmUTNaaNRZTIsGPkogc+YikveoKTPkl3xnyyrlRQn1nLzbUmZsgZFG+0adj5rM6c/o16LmdKcvQ+b0bVEzVNFbkXnUnO7orCyIig4bNUMV4xyZ44CNEjgh3fUVoja4huMVmSN7G6hzQlEURVEURclKMJjZGSF+lX0cZewcwC5hUXOOK4qiZCvqnLBA1EZXYonaKIOLyjx6RFXm5DvKMo+q3FXm0aM4yJwtDOvWrSvlypWTvn37Ou+K2aa7devWcv/998sbb7xRpBFsUW7jovycq8yjRZRljjOX6Alb07fUOWGBvLw8ad68udx0001y7bXXhppuvPFGqVq1qtnLOOwwJSp5nz59pGzZsp73FnS68847pV27dmZf37BhVOe5556T0qVLe95bkOmGG26Qp556yuxdHfboEXWM/cAfe+wxue666zzvL8h0++23y0svvWT2aQ4b6lmbNm3klltu8by3INP1118vTz75pNmfP+wwezp09sd/4oknrMi8TJky8vzzz5t2NmzYA75t27bmHrzuLchEWT/++OPSu3dvK+G37HtfqVIlU/e87i/IxDPWsmVLs0972BD6+vrrr5u2xuvegkzIHKP8008/tTJlcPTo0VKtWjXTx3jdX5AJmZN3+lTugb33mVZFmjZtmjRq1Egefvhh0wYW9doQhHm//fbbRqfwurcgEzInXz169DBTicJm4sSJUrt2baNLet1fkAlZI1fuIWxwbnXp0kXuuecez3sLOj3wwAPm+kwnCpvp06dL/fr1pWTJkp73FmQqVaqUcT6OGTPGuZvwYErDRx99JPfdd5/nvQWd7r33XtPOxEeEhQF537hxo7XlB9Q5YYFevXrJueeeKy+88IJRKMJMo0aNkssvv9wYLnTYYUJHijJRokQJmTx5suf9BZlwCF1wwQVGWQkbDHSu3bRpU897CzJR1pQ5Zc8c2TDBSMJgoc5R97zuL8j04osvmmfts88+c+4oPHAAXnTRRVKnTh3PewsyYaShPNK5YTyFCQ6wWrVqycUXX2zKwOv+gkwdOnQwMv/ggw+cOwoPjLVLL71UKleubOYme91fUGnRokVy6623ym233SZr1qxx7ig8mjRpcrp99bq/INO7774rf/vb38wIedhMnTpVrrrqKilfvrxs3rzZ8/6CSkxZuPvuu40Cv3jxYueOwgOH+/nnny89e/b0vL+gEorz559/Ln//+9+NLrNw4ULnjsRM4cCArVGjhowdOzaQtRHmzp1rnAQPPfSQrF+/3vMeg0obNmw4PcAze/Zs547CgwEe2tdu3bp53l+Q6YsvvjD1DUdk2DDAwYAiDqkVK1Z43l9QCYcE9fyKK66QSZMmOXcUHhjIyLxTp06e9xdkQnfmOeeZDnutDwYbcDrjCGWww+v+gkrYSzhdL7nkEhk5cqRzR9FBnRMWoCOngW3fvr3zTnjMmDFDrrnmGqvOCYwmG6OaGKo0cl999ZXzTngMGDDAXJsR3bChrClzW86JihUrmjpH3QsbDFWeNUYWw2bIkCHGQH/66aedd8IDo4UO1ZZzombNmsYhNW7cOOfd8HjvvfeMzBllChsccJdddpkZWQx70V9GOe666y5rzonGjRub+v7DDz8474THxx9/bGTesWNH553wmDJlinFOVKlSJfRFAhnBx0C25Zx49tln5cILL5Svv/7aeScc0F14vjEcPvzwQ+fdgjUmiOAhUpBolqAiBV3nBJFKGBJhwkgmUWm2nBNEhuGExFEQNoMGDTL1rUWLFs474eE6J4hgYGHMMCEaCEP1yiuvtOKcwClB+9q9e3fnnfDgecZAb9iwoTXnBA4pnJBhQl6JVmGw46effnLeDQ+inql3tjYvUOeEBdQ5oc6JMFHnhDonwkSdE+qcCBt1TkTHOcHOIETnoLhzfcrfhUgJRtUZZaX9DeoZVOeEOifCRJ0T6pwIG9oZorTCbt9cIu2cmLXsV6nz9iqp/sZKGTN3rxw7cUqWrj8kr/baIFVeXyndB2+RHXuKvnNT54Q6J8JEnRPqnAgTdU6ocyJs1DkRHecEecZQo64zjSp27SwMZ/o62nsMuqBQ54Q6J8JEnRPqnAgbFgKlbbW1IGiknRPj5++Te55dIre1WCSDJ++So8dPyfxVB6R+59VyS9NF0u6LjbLll6IPC1TnhDonwkSdE+qcCBN1TqhzImzUOREN5wTTNnjGWGCZtXxY4wNQoFl3AmWefi42miII1DmhzokwUeeEOifChjYVHUadE0XI4SMnZfz8vfJa343yYo918uKH66Rd743y06w9sv/gb5V7woJ9ct9zS+SOlotkyJTfnBMN3l0tZZqd7ZxYv+2I9B29Qzr02yR9Ru2QlZsPyYmT6a8Arc4JdU6EiTon1DkRJuqcUOdE2KhzIhrOCRZ9ZdHTBg0amAUxWRgTtmzZIp988olR5t966y2zKGaQqHNCnRNhos4JdU6EjU7rKEJ+PXRChs/cLU+0XS63NF0oz328TvqN2C6fDdsqjd5fIyUbLZAn2y2XsfP2yvETp2TSwn3ywAuFOyfe6r9Zdu8/ITv3HZP3Bv0s1zVYINfWny+vfrHBnAPHRQa+CXVOqHMiVNQ5oc6JMFHnhDonwkadE9FwTrBFMVETrVu3No4Kd1Rv/vz5Ur16dfPcTZgwwaxLESTqnFDnRJioc0KdE2HjLogZO20uTHLGOXHs+CnpOXy73PPsYuOA+G7yL2YNCZc9vx6XN77aJPc+t0Raf7rOOCEm5u2Tsm2WnuWcaPz+Grm71WKzHsVzH62TW5stlKtqz5MPvvtZtu3xP81DnRPqnAgTdU6ocyJM1DmhzomwUedE7jsnTp06ZbZhxyHQt29f89pl/Pjxpp+hvQ9Dr1HnhDonwkSdE+qcCBvaVzfZIGecE7v3H5c2n2+QK+vMk+c+Xi8rNh3KL1Tnw0JgWse9z54ZOcGCmKw58e8PT5d/umOK/O2JWfLH/HTz03nS66ft5jp+UeeEOifCRJ0T6pwIE3VOqHMibNQ5kdvOCZ4l+rHnnnvOOAS+//575xMxocfvv/++lC1bVrp27eq8GyzqnFDnRJioc0KdE2FDO4NOodM6fHLw8EnpNGCzlGycJ427rJHZy389Y8qFmcaRt08+HLZVvpmwU9ZsOWycEw+9eGbkxMI1B6Re59VyaY155jyL1h00u3o81WGF/LnCbKnZaZWs+tnfKtDqnFDnRJioc0KdE2Gizgl1ToSNOidy2zmB7oCMUdYxlJYsWWLeZ1SPqR60sfTvYRlu6pxQ50SYqHNCnRNhgx6H/s5/G+TUmhPTlu4360VcUbvAsbBh+xHz/pFjJ2XMvL1yV6tFcmG1ufLuNz+bLUKZ1vFA6zN365i3smC3DtaceL3fJvllX0GkxNINh4zT4i8VZpupIz9M3yUnMwx3UeeEOifCRJ0T6pwIE3VOqHMibNQ5kdvOCQyDGjVqSPny5U2bgrEGPGOvvPKKaeeY6oHhHgbqnFDnRJioc0KdE1Ejp5wTcOjISRkxa7fU6rRKLqkxVy6sMFsufGKWXFRtrjTvtlbmrPjVRFEAERG13lolVTuukNFz9pg1KpjW8XLPDfLUayuk63dbZPve3xTM9dsOm10/WBjzwdZLZcC4nXLoaPrbrKhzQp0TYaLOCXVOhIk6J9Q5ETbqnMhd5wQLsqGcYyTQruzevdu8z2KYRFDQv9DOzZs3z7wfBuqcUOdEmKhzQp0TYYN9yFbN7o5IYZNzzolsQJ0T6pwIE3VOqHMiTNQ5oc6JsFHnRO46JyZPnmz6TYwTruM+V8uWLZPXX3/dtDXdunWTrVu3mvfDQJ0T6pwIE3VOqHMibKhztG2HDh1y3gkXdU5YQJ0T6pwIE3VOqHMiTNQ5oc6JsFHnRO46JzCC0VfQm2JH8UaMGGHaNxbJZITP3VY0DNQ5oc6JMFHnhDonooY6JyxAJ0vjbss5cfXVVxtDFaMFB0VYiQf9/vvvlxtuuMGac+K8886Tzz77zPP+gkzInGvbck5Q5pT92rVrPe8vqLRlyxZ59NFHTZ2z5Zz429/+ZgxVr/sLMn355ZfmObfpnKBjXb58uef9BZVwQj711FPGSLflnDj33HPlzTff9Ly/IBOL81100UVWnROlS5c2z7zX/QWZyDOGgy3nBDJ/+eWXPe8tyDRy5EhT1206JzCUaV+97i/IRNtGGxeEc4LnZ8GCBdKyZUvTnsQaZZs2bTKOEdp2GzKfOHGicUjZdE5wfbZQ9bq/IBM6DLqMLecEgzwYql73FmSaNWuWXH/99VadExiqOOW87i/I1K5dO9O+2nJO4PRmwINnzev+gkqLFi0y/ekdd9xhzTlBn/rtt9963l+QiTrOTkg6rSNCEI7I6P2cOXOcd8IDZYbttmhg8byXKFEitMT1MJAJwdy1a5dzR+ExdepUM7qH99vr/oJMJUuWlLp16xqlJmwo648++kgefvjh0GVOuueee+Tdd98NvUMHFIrmzZvLzTff7HlvQSaiVehQR48e7dxNeNCh4BB75JFHrMickQacA4xohs38+fON4XLrrbd63luQCSdg1apV5ccff3TuJjwOHjxoFgXEYLIhcxxhr732mnFChw1RA61bt5YyZcp43luQCYMF45lIqbBH9o4cOWIcAxUqVDAOCq/7CzJR3jgHcIYWJezCMWHCBKlUqZKJvMMgc1eNx0jAYUE//uCDD5p653VvQSbKGgdB7DSTsGANDpyglStXNu2N1/0FmXB6v/DCC6d3TAkTIsJoY+hfvO4tyITMH3vsMenXr59xFoQJzwN9Cg4K9Aqv+wsyYaA/88wzxlkYNjjd0SXuvvtuz3sLMtGPskVxr169TBRw2KA74vTHfvC6vyATNmLnzp1l1apVzt2EizonFEVRFEVRFKtg8OLswJGOYxXH8rRp04yDnUENpnfwGU7fgQMHhu4MUhRFUYJHnRMWYIER5v7b8MTZhDmhhGUR9o33P0rgaY+izPH4E4aKzMMeYbINo5rkmxC5KBErc3e0MyqQX/JN5ArlECWo5+Sdeh8laNfIN3U+ajKnP6NfK6qR5B07dpipYMyxJsLUnSaDzjRz5kwT4s2uHDYiL2OJlXmYa10UB1yZ21oozxborNQ7dNioyZznMIoyx/nJ7kCkqDlCicRE5mFPVXRR54QFEDorS9uay2MLGnQ6dKaWRM1QpVFH5igzUQJlnQ4dmUfNUEVhZypL2HOSbYPM6czJe9QMVfLryjxqhip5Ju9hhzzbhnaN9o06HzWZ05/Rr0XNaHFlTt8WNUMVvRWZo8dGCXRWnGfosFEzVHE8I3NbhqotcEhhoJOiNqCKExKZ2xpcU+eEoiiKoiiKoiiKoihWUeeEBRhdY5QpaqMNjCrhhWO0JWqeZ0ZakHnURhuQOR5YZB41zzMyJ99RlnnUIqTIL/lmhClqo+jUc/IetQgp2jXyTZ2Poszp11Tm0QG9FZlHLSoOnZWoEXTYqEXLRFXmyBmZk6ImcyIgbdqp6pywAIorq9gj+CjBw00oJNtLRs1oQYlD5oT+RgkUN0IhkXnUFFjyS32P2vQtoG0j71F0TpBvDJeoQYg721NHzemOwk77Ruhv1AxV+jP6NZsOWNrX7777Tpo0aSJ9+vRx3i1QrqdMmSKtWrWSTp06Fek6FbTtyJy+LWpGC207Mo9aiD9tO2HutO9RG1zjGUPmOOOiBE5IpiqSoja4hhMOmdvSX9U5oShKsQQliNXb2QKWPe6zLU2ePNkox/z3+jyXU1Tz7pVvFvJjC7yoGe2KEiQYiGwzyLbBt912m7zxxhuyfPly4yDCcO7SpYvZZrRp06Yyffr0yDnHFUVRshV1TlgADyweyKiFSKE0oKCjOERttCGqMgdX5qmONlBWGHPspc7e4uxlz/7e2Zaeeuopsy862995fZ6rqWrVqvLEE0+YvFMGXt/J1eQl81tuuUXKlCkjn376qRm9zdXRdUaqec6jNsJEu0a+o+h8oj+jX6PNDpuFCxfK888/b545ni13VJeRbSIlKlasKB07dpR169aZ94uSWJlHLVrGpsxtgs5KhFAUZY5jL8oyJ0XNZnFlbsupq84JCyBwPP5RC/Hn4SYsjlChqI1ioMgg86IMLc0G6MRRFpF5qo6ZVatWyZtvvmn2su/Ro0dWT4vgWY9aCCi4zrgoQr5jDXSif15++WWpXbu29O7d29rq10HDKvabNm2yGuJvA5wytG+E+EfNaKE/o1+jfwubwYMHy+OPPy5du3Y9o2+ZP3++cQo+99xzRiZBwPWQOX1b1IwW9FZkHrX2HZ2VaWvosFHr04liRea52ncVBnoM07eiOBWdqanI3NbyA+qcsARKTNQUGYhqvkFlnho//vij3HzzzdKoUSNj7GRzmanMo0d83jFemJp03333mYiKDRs2OJ/kFipzfc7DACNh1qxZ8uKLLxonBE4KlxUrVsh7771noim6desW6CCIyjx6qMyjR9Rlbivv6pywAF5XRluiFv5KJUdZYNQhag+7K/OoeV/BlXmyESY+Z85whw4d5JFHHpGePXs6n2QnyJx8q8yjA/n1kjkjzBhT5cuXl759+5oFtnIN8kzeozaq6Mo8SEO4uILM6dfClDkjeq+88oqZPkUfwaimC9M7ypUrZ6ZzrFy5MrD2J1bmUdNl0FvDlnlxADmrzKMnc+QdZZnbslPVOZECh4+elFnLf5Uu3/4svUdul/XbULozr6iERjF6FtVpHYyGR02RIwQSmRP6HCVo0DHEkDkdeyKYy9m5c2czuvz++++bdSeyGXcqD6v4RwlkTrgzeY/aPHzyS77jQ/wx4lgYk1BzRnWHDh3qfJI7UM/Ju40Qf5ugwNG+UeejpsDSn9GvhRXiT/kuXrxYHn74YbMW0dKlS51PChyATz/9tNx4443y/fffO+8GA30ZMqdvC8oBUlxBb0XmUQvxR2dlKg86bNQGFgntR+ZR23mMfpupPKT4AYdcBycwMtdpHcWYfQePy+fDt8k1dedL2TZLZdqS/XLCh3OCzoyKHjUvJNCok6KmxEVZ5uQ5FZkvW7bMjCwT/j5v3rysryPInHyrzKMD+S1M5rzHVofXX3+9WYMi17YbdWUeNWMtkcxzHfJMvxaWzDEOe/XqZRbdbd++/WnHL4byDz/8IPXr1ze7c7BYZpCozMOTeXHBlTkpav2aq7+qzKODbZnnrHNi2YZD8lrfjXLnM4ulfNtl0vaLDfL4q8vkzlaLpfvQLTJmzl5546tNUvrphXJB+VlyUeU5clGVOfKXirOlVJOF8uHQrbJ2y2GZumifNHx/tfzh0ZnyL7dPkf/vrqlycfW50qzbWpmS/9nxE+lXWIRNZY/agw50bKSoPehuI6cy94ZFMJkrXKtWLfOfUchsJ+oyj2KH7sqc/HuB040dBho0aCD9+/fPqeg5t1+LoszdNi5qhC3zCRMmmLWIWrRoISNHjjRRK8BaE61bt5Y6derIV199FdhCmC4q82g6IVXm0ZV5WG1cccG2zHPWObFi0yFp13uDXFFrnlxZe750/HKTbN1VMJVg4doDJgLikhpzpd+YM42gX/Ydlx5Dt0jrT9fLt5N+kYNHCgTz3eRf5NbmC6XqGytl2QZ/q5HrtA6d1hEVaNBTmdYxcOBAswgme9ZTTjSK2Q67Fui0Dp3WEQufT5s2TR599FGzrkpsWHq2407riOJuHTqtI5xpHTgemNKBAztWf5oxY4aZDtiyZUtZu3Zt4Aq1TuuI9rSOqDkoojytI8q7dSBzndZRxCzfeEja9t4oJRvnSb3Oq2XNlgIPO9MxVm4+LA3fWy3/9tB0+csTs+T2pgvl4dZLpOJry6XniO353zFfPc2eA8fMWhM3NcmTJ9stlxlL92cUMeGC4YVCE7XKjuJGp07eo9ah05lFUeaQSOaUy/r1680CZ7feeqt88cUXzifZjyvzqDnigDyT96gpcanInDUZWrVqJbfffrv069cvZxyWUZU57VpUn3P6szBkju6Aw48tpnFODBo0yPmkwPFPFBLvd+rUKRTdwpU5fVvUHFKuzHNhACEdVObRXMQfeUdR5rbt1Jye1tGuz0a5rfkiefqDNbJqc4Fzgvp19Pgp2bX/uGzacUQ2bDsigyb8ImXbLJP/LDdD/u2uqXJO+Zlya7NF0uXbLbJz73E5mf+jPqOKzjmhKEoBeGU/+OADqVGjhrz77rtmtw5FyWXo9CdNmmSmd9StW1eGDBnifKIoihc4IFjkkvUkmjdvbrbmdSESiTVceJZinRaKoihKdpLzzokyzRdJky5rZM3PBc6J3fuPG0fDLc0Xyi3NFsqwabvM+y44Hfi8dJM8KffSUuOIYLeOL0Zuk1KN86Ty6ytk0Vp/q5HT0RL+GsVpHYRBsvJt1EaZ3J0bWFE8SuBtJtwZmeN9joXPcEaw9dtDDz0kCxYscD7JDQhvJ/Q3ilN5GOUk71Gc1kG+meKQaKSFzxjtveGGG8wOHrlQTtRz8h7FaR20b4VN5cll6M/o14LeoYVQ+jZt2kiVKlXkyy+/NHoEoFN0795dKlasaKZ6rF692rwfNPRlyJy+LYxIjeIEeisyD2sqT3EBnZXwfupe1KLDCPFH5lGbysNAAm1PFHdoYQoPMre1cHfOOicWrz0oz32yXq6qM19qvMk6Eb8pf3t+PS59R203zofrGy6Qx1ovlfrvrDKJCAoWyWzebe1pxwT8NGu33NFykfz+8ZkmemLg+J2yddexfGXEfJwWhMnwkMcba7kOihuKK51a1Dp0V+YoslEiVubxHfq6deukR48eRrEkXDfX5jPSmZHvKMocY5u8R61Dd2VO/pMZqosWLTJbH9auXVsGDx5sbW5nUUE9j6LMaddSlXmugczp14IO/cVxfffdd8tjjz12hgMC5wjPT+nSpWX06NGh6RWuzOnboiZz9NYwZF7coG7hhIuyzKM2qOjKnBQ1mwVZ27RTc9Y5cejISdm444gsWnvQrDfB63h27TsuM5f+Kj9N3y3DZxSk0XP2SN7qA7L/4JmG1JGjJ83uHRPz9sm4+XuNs+PAoWh5TxWlKBkwYICJmiAkl4UBozYaoUQbFJ5x48aZHWqqVasm8+fPdz5RFMWFRdk++ugjs83066+/fjrKiEgdnHpEU+DkCytqQlEURQmWnHVOFGdQSgkJzLV97pOB55HQV0KkouZ1x9uOzLN9dDRdGGEgxB2Zu1533uM14ew33XSTfPPNN+b9XAMlmjDQqE3fQr4YDuQ9alEj5Jd8M6KbyugabSLh6qVKlZLevXtndXlRz8m7azxGBUaWaM+o81EbUaU/o1+jfwsK+gccEO3atTtj6t/06dOlXr16xjGBkw+9Kizoy5A5fVvURlTRW5F5mOVdHEBnZUoHOmzUBlKIakXmRAtFCaIAmbpFilpEIFETyNxWRLM6JywQNQVGUWJBsfvkk0/MIpiMhC1btsz5JLcgnyjvUVPiaN9QYsh71JyQ5Jd8k/9U2/mxY8dKixYtpFGjRvLTTz857yqKghHIQsmPP/64DB8+3Hm34DljIVmcFux4oyiKohQ9tpyv6pywwMyZM6VOnTpmn/uyZctGKrG/P8nrs1xOTF9gvqzKvKzZQvGqq64ye9KvWLEicgasosTCqDMOCgwwnosHH3zwjOcnWxJtG885bZ3X57mayG9U+zVkTr9W1DLnnE888YTZHpTXr776qqxatcp5YsQsJss6E//3//5fufzyy0Ovcyrzopd5NiSVuco8KgmZV65c2USl2UCdExYgHHDChAlmOywWRYtKysvLM/mmss+bN8/zO7maZs2aJWPGjImczBcuXCgTJ040Mp87d655b/HixWYxTMLGchlC9AkHjNr0LSIGCPEn71Fb9Jf8km+iJ9KJkGN0gmkBGGDxz1C2pClTphgny+zZsz0/z9U0Z84c076xPSztndd3cjXRn9Gv0b95fZ5uQkegPHv16iUVKlSQq6++Wl566SUzfYJINJ4Pdue45557TNQEi2CyXpHXuYJM9GXInL6Ne/b6Tq4mV+YMsnl9nqsJnRWZo8MyvcjrO7ma2K4Xmc+YMcPz81xNrAM1fvx4kzj2+k6uJqbNUd/ZscMG6pywAEYLimiQ8zSLKxhqGC5Rm6eJYoXMoxbiD8xZQ+ZRm6eJoYpSnWu7kCQDo5zn3DUoogT5Jd/kPx3nRC7AVBbW2ohaJBRzkWnfct3Z6gX9Gf1aUT3nKMREDl177bXGKcFr2Lx5s9SvX1+uvPJKqVu3rnz//femzG1BX8b1o9a2A3orMo+a4xmdFZlHbbABWEcImUdtDSn6cAYa0h1syAVcO9WWzaLOCUVRFEVRFEVRFEVRrKLOCQvY9kjZwh1RZXQtaivfMsqAzKO22nHUZU6+oyhzRhTJexQjJ8g3o+hRG2lxIyeiNqJKpAj5ps5HUeZRHEWnL0PmUYyQcqNlojaK7kZIIfOoRf660TJR24mJCCk3ciJqkb+uzG1F+KtzwgIImy3XohYSSINOyDPbMUUt9NeVedRCAlHcaOCQedQMVTpy1pehY4sSyBzFnbxHTYElv+QbJTZqRgv1nLxHcStR2jfqfNRkTn9Gv2ZLgbUFfRkyp2+LmqGK3hpFmaOzsp4QOmzUDFWc7cg8agOqOKTYOpYUtcE1HM/I3NZ0RXVOKIqiKIqiKFkJxgOLcsbu6AEo2Cxkx0KlUYvuUBRFyVbUOWGBqI2uKIqiKIqSWxAlQ/SErag4RrCHDRsmVatWNVsdDhw40PlEzM4CzZo1kwceeEA6d+5cpFGLXJcIApwfUdPnbMvcFsicUWRkHrVoGSICkXnUHHzIGZmToiZzF1vtmzonLDBq1Ci56aab5MILL5RLL700MumSSy6Rv//973LBBReYY6/v5Gq6+OKLTb6jJnOSK3PKwOvzXE1Rljl5Vpl7fydXk8r8N5mXKFHC7C7Btou5DNOXNm3aZCXcmxD7b775Rp588kmpVauW2YIUgxnjma3/6tWrJ48//rgMHjzYvFeUSjbXIeSZiI2oGS1M30LmGOlRgmkdTFuj3kVtWgeOCWRuK8TfFkzlYPoWKZ1pHTguP/vsM7n//vvlsssuO6O/yJZ00UUXma2caWNtoM4JS9BR0qnRyEUlkV/yHeW8Ry3fJJV59GQe1byrzFXmpJEjR0q1atWkefPmMnHixMitwxEGY8aMkQoVKsgLL7wgy5YtM+UPTO3AMVS7dm2ZMmWKlr2iKKHBtse9evWSp556Stq0aWNex/YX2ZLcfs0W6pywAB5YRhqiFhZHRUdRYCElV5GICnhdkXkU570SEhhVmZPvKMucTi5KkN+oypw8k/eoLRzmyjx28VcWxxw0aJAZuW/atKkZZc9FkDn9WpgyR49gIcoePXqYqIl+/fo5nxSsMTF06FCpVKmSdOzYMTAdi77MlblNBd4GlCkyj9qi5sgc/bWoo3CyAZX5oZT1V6aZPfLII/LMM8/IggULsrbMbNup6pywAKFRGzZsMCGRUYKHm7A4PIlRc8zwkCNzlNYoQSdOSBwyj5rBhvJKKCSKdJRA5oS+knc69ShBfsk3K7pHTYGlnpN36n2UwEClfaPOx8qcvq5GjRpyzz33yNixY3Oy/aM/o1+jfwsLrtW3b1+pW7euvPTSSzJz5kznEzERKziDSD/88ENghgGyROb0bakaLbkCeisyj1qIPzrrzz//bJ7rqDndmcqDzKO2wyDtB45lUiptCf1+hw4dpFSpUvLpp59mtQ7AVB5kbmu3uUg7J5ZtOCTP9Fgrj72yTLoO3iJrt4ajPFBh6dCipryCm/eooTJXmUeJqOZdZa4yd8FpMWDAAGnQoIG0bt1apk2b5nySO9iQOQ6BypUry5133injxo0z1wfu4eWXX5brr79eevbsGfiIpT7n0cu7yjyaMiclA2O+d+/eZq0bnKZz5851PslObMs80s6JVZsPS73Oq6RMs0XyRv9NoTkn8LrieY9a+CuVHIUBD3TUGrmoyhxcmafSwOcS5Jd8q8yjgyvzoA2j4gj1XGV+Jowyd+vWTW6++WZ55513cq5skDn9WlgjyURNjBgxwkyXwenDSDZw/Xnz5pm1JvgsaEdQrMyjpsuELfPiAnJWmUdT5qRkMl+xYoU88cQT8uijj5r2h99kM7ZtlsCcE/sOnJDvp+2ST3/YJpMX7pMxc/fIOwM3S9veG2VY/vuHjhR00tv3HJMvftouzbuvlbpvr5K6nVZJg/z/b361SRavPTtU8ET+z0bM3C3PfrRO6rnff2eVtPlsvYybt1dOetQfnA7vf/uzNHx3tdR9K/83+b9rn38fb/XfLBXaL5dyLy2VN/tvkgl5e2XI1F3S+evNMmLWbvn10JkP4rHjp2Tyon3S5dst0nvkdlmy/qAc97pgEtxpHVEL8adDJzyK0N9sf3DThbmwyDyKIf6MdCFzGroogSK9ceNGE+oXJZA5Ie7kPYrTOsg3q/hHTYGlnpP3MEP8iwNESNC+xU/rcGFBTLa5bNiwocyaNeuMtSmyHfoz+rWwdm7Iy8szYdOU5RdffHE6zBwnBWtQ4JzACbR27VrzflDQlyHzKE7rcKfyRHFaB1N50GFtGWy2iPK0DtoWUqIBB9pBppo99NBDZoHeXHg2cnZax+adR+XpD9bI/3t0plxdd7606LFW+ozaLpMW7pM1Ww7L1l3HpPuQLcY5UOedVfLRsK0yZs4ek77M/16T/N/e1WqRtO+zUbbtLqgUODXKt10ut7dcJC98sk6GTd1V8P3RO6Ri/nlubJQnzbutlbkrCjrKTTuOSNsvNkqZ5gul4mvLpdvgLTJq1h4ZNXuPvNV/k9zUZKH83wdnyDX15svbAzfLvFUH5L1BP8uFVefInfnX5noHHSfK8ROnZO7KA+Z+f//4TGnadY2s3HTI0xmSDDozKnrUvJBAox5Fz7PKPLoyj5oiA67Mo6a4q8yjJ3PatUQyx4D98ssvzfoTKK5r1qxxPsl+6M/ClPm3335rFptjFfylS5ee7lMIoa5SpYrUqVMnlB06ksk8lwlb5sWFWJlHTZdxZR41/dWVOSmRzIcMGSLVq1c/PX2P72c7tmUemHPi551HjaPg4upzpWanlTJl0W8et1/2ES2xTUo2ypMyzRbKwHE7jaG/+ufDJjHd4rtJv8gDLyyRB1svka/G7jBRCp//uE2qv7FCug7eKuu2HpYN247ImvzvL153UPqN3iH3PbdYSjXOkwH559u6+5j0HbVdbmm2SMq2WSozl53t2Z+4YJ+5xlV15pmoju35v1m+8ZBxqlxWc77UeGuVOTesz7/W8x+vN+dr1nWtLFyT+aJfVHIEHrXGHcgzKWqNu8pcZR4lyDN5V5lHhyjLnLwnkjmjzRjPV111lQwfPjxn6keYMuc6n3/+uZm2gbPHhWuz4GjFihXl9ddfDyVyJxWZ5yphyrw4EWWZk/coyhwSyZzyIBKOnTkuuugis+ZErmBb5oFHTlxbf7507LfJOBNclm44JC99vl6uqDVPLqgwW25vtlDuf37JGenRF5dKrY4rpV3vjfLT7N2yacdR4zgYPHmXVH15mfzu0Zny14r5v226UO57drGUapQnf3hsppR+Ok+GTt0leWsOSNsvNsgdzyySlt3XyrotZ4eUL11/SBq+t1ruemaxdBqwWdZtOywn8wUxc9l+M9Xj2voLpMfQLbJ5xxEZNOkXuTn/Wjg6pizaL0eOZS6wqO/WEcVpHShMyDyqu3VEcVoHuxbotA6d1hEV3GkdUdytI9G0DkDJw6CuVauWvPrqq2Z6Ry4Q1m4djOARHfHss8+aed0//vij84mYKRydO3c2ERXdu3d33g2WKE/r0N06dLeOqEC7k2i3Dp6FgQMHmulkzz33nJl2livk/LSOEvXmy2t9NpqpHC4bth+RD777WW7JN/ZZkHLHnrOFvv/gCbMWxac/bjNTQT76fpvc+cxi+UuF2VLj1eXGSYHDwoXz131nlXEgfDlmp7kG00aub7BAHmq9RKYu3ifxakPe6gNmuscNDRfIG19tOn2P6Bf9x+6QpzqskEdfWSa1889b5fUVckfLRfLWgM1y4LC/zoiwMJTYXAj9SQcUNxQ58h61Dt2VedScMoAiF0WZo8BEXeZRU+JcmUfNEQfUc5V54TAv+cMPP5Q77rjDjPDnAq7Mg57eQNmxpgQr4eOIWL58uXkfnWLQoEHSqFEjs0L+1KlTzftBQ1/myjxqTkj01jBkXtxA5uivJJV5NHBtlsJkvnjxYnnyySelUqVKpu3he7mCK3NbdmqgzonG7682UybafbFRVsc4J1inYcGag1Kl40o596k55j+LWR4+mv/w56fvp+2WJ9ouz//tfLOA5rINB2XIlF1mCgbrV7z/7RY5kv891oHY/etx+XrCDrM+xf+5c4r5nGkgR4+fMtM+WDiT93A0jJy95/Q1Rs3ZI4+9slz+z/3T5LzKc6Tjl0R3/KZcsFAnzo1LasyV/1lqoonyIIpi2+7oGRqKoiiKovhj5syZUq5cOalZs6bZXSJqAxSZQnRE1apVpXz58maBUdfhy3/Wn7j77rtNZErURvMVRbEDEQUsgnnXXXeZNghDXik6AnNOEA3BIpNVO64wa0XgrPCC6IWWPdZKySZ5cmWNeSZdXWe+1Hl7lcxYemZHM2f5r2ZXj5KNne/WnCcl6i0w0RffTvpF3h/0s9z5zCK599nF8vH3W82OIbBw7UFp9dE6KcU1qs81v2N6RuP315hpHa0+XGfWrNgYE4kB05fslwrtV8gFVeeYqIw8H+tMxMLK1oQE2gqXsQWeZ8Igk618m4sQ9orMozaVB28z4c7IPGqjyYS3s7p3FKfyMK2BvEetwya/5JuR3qiNrlHPyXsUp3XQvqUylYf+r2fPnmbhRqZ3uBEA2Qr9Gf1akNM6cEAwjYOIk7p165pwY2AUd8GCBVKhQgV54IEHzHFY0Jchc/q2qEUEorci87B2aCkuoLMS3s8zHLXoMJ45ZB415x9tDNN4SPFRIyyC6U7nwGGaa+0AU3iQudvehk1gzolcYPiM3Wb9i6pvrDDbobo7d/iFzhbB51IIUCqguKHE0MBFrXGnY1OZR0/m5DtqBjoyx0Al71ELAyW/5Jv8R805QT0n71FzPKcjcz5nbY4WLVpIqVKlZPDgwc4n2Qn9Gf1akDKfMGGCtGzZUho3bizffffd6TZlyZIl0r59e6ldu7Z88sknxlEQFvRlyJy+LWrPuStzN3olKiBzHDLIPGoOKZxxUZQ5ckbmpFiZ85o2/KabbjI7COXiwJsrc1t5U+dEHLOW7Zdm3daaqSCXVJ8rlV5bbqaARKv7URRFURQlCPr162emKLRt21YWLVoUOWMnHXr16mXmdffp0+eMCI3x48dL5cqVpWPHjmY0O2pOAkVRwofIoWHDhpmtoRs2bGi2NFaKHnVOxHHs+CnZd/CE7Np3XPYeOCFHjp0scscEHSzhYbbCZWyBAkboKyFSURtdY1QNmUdtKo87UojMo+Z1ZySZfEdxKg/TGsh71CKFyC/5ZopD1Iwl6jl5j1qkECNL5DudqTzr1683o/1si/niiy+a6R3sdJJtiQXhZs+eLStWrPD8PNNEODFlxBahTZo0MetNxC52yfVeeeUVM9+bBTK9zhFkWrNmjdk9hKkk3KfXd3I1EbGCzLO1zmaakDnrxCDzdevWeX4nVxMGODJftmyZ5+e5mljrZv78+Sa57/3www9mW+gGDRrIuHHjTARVLkK+sFmInrCBOicsgAKL8hq1ubkobjhkUGKjFu6NAovMY0d+ogAyp3GLosxxxpDvqM3NReZ0bOQ9ag4pV+bkP2rOCep5FGWOoz0TmePMYP2JihUrSpkyZeTWW2/NusR933bbbUV2/3feeac8/PDDcvPNN8vvfvc7+ad/+icpW7asmdrhglHMlqwXXHCB+R4OCq9zBZmKOt/ZlKKadzffJK/PczmpzH+TOYvvNm/eXCZPnuy0SLkJgww27VR1TiiKoiiKoihWYUHVdu3amYgSdjThOC8vz0TfMX0Dw+C+++4zW4eySKaiKIqSe6hzwgJ4pFi8KVfDgQqDaR144lA0ojaK7srcVoiULRhJZFQRmUdtKg8RUkxjiqLMmb5E3nNxoahEkF/yTYRY1CInqOfkPWpTeYgUoX2jzkdR5vRrRTWVh+cGZwRTJpja4bYf/CdigtDy1atXW49Goy9D5vRtUVsvBL21KGWeLaCzInN02Kgt7s3zhsyjFu2NnIlwI0VN5kR5I3Nbba06Jyygzgl1TkQFdU6ocyJKqHNCnRNRoqidE9mCOifUOREl1DmhzomwUeeEoiiKoiiKoiiKoihWUeeEBXRBTF0QMyogc0bXoihzd3FE2yHIYYPMGV0j71FbHNGVOfmP2ig69TyKMs90QcxcgP6Mfi1qEVL0Zcicvi1qMkdvReZRi5BC5kRHocNGLVomqjInWgJ5k6IWOUFklE07VZ0TFqBD161EdSvRKIDiRigkMo+a0ULjTr5RYqMEMicMkrxHTZkhv+SbTj1qRgv1nLxHLdwbOSPvqE3TBPo12nebjmfK/ssvv5Q6deqY3U9c0LPYirRZs2bSqVOnIpcP143alD3g+UbmUdPhgDYuano70K8h86jpcLRrTG0gRW1wjfZStxJVFEVRFCVy4MiaOXOmDBs2TAYNGpR16dtvv5XBgwfLd9995/l5LifyTN4pA6/Pg0xDhgyRr7/+2mzFesstt0iXLl1k7dq1xlmEAfnGG2/IhRdeKDfccIO89NJLMmDAAM/zZJJU5nZkbjOpzH+TOf9Hjx4tK1eujKSTSgkedU5YAO8j3qiojSqiNDCagUcuaiFSNOAq8+jJnHxHcSSZEVXyHrXRBvJLvsk/5RAlqOfkPVVllbJav369vPrqq3LTTTdJ+fLlpUWLFlmXmjZtKnXr1pX69et7fp7LqWHDhiZioUmTJp6fB5keffRROeecc+TGG2+Uzz///HTfyign246yHWnt2rXl+eefN6lly5ae58kkxcq8efPmnt/J1eTKvHHjxp6f52oiAgeZ16tXL3IyZ+veWJk//fTTxiHIM8iWvrkaQUS0N9MVSVGbysNUPeRqa8qeOicsQEVnm6yohfjzcG/btk1+/vnnyHlbMdCReRRD/FEWkXnU5iVjoLJvP+G/UQKZM32LvEfNMUN+yTfRAFFzTlDPyTv1PhVoD99++22pWbOmGfVmSki2Qp8etfYNcDDZCnMfOXKkVKlSRT7++OMz9Ik5c+ZItWrVpHXr1oEaTcg8aoMN4M7DjyLocVHr0wDdPV7m7pQpHBYjRoxw3s0taN/ol0hRG2ih7aSPtvWsq3NCURRFUZRQmTJlitx2221SvXp1E46vKKlA5OnUqVNNNASOraFDhzqfiCxZssQ4vCpXriwffvhhJB1GihIGGOt9+/Y106ZwBEZtwFEJFmvOieMnTsnyDYdk9Jw9Milvn/y8MzoLrfBQ432N2sPMSCIjDeQ9aiFSrsyjtqAQoCBGUeaMMEVd5lGbyuPKPIpGEfU8VZmvWrXKGJGE3nfv3j2r2waV+aFQRxUZycMYKleunPTp08dE5rngkHjwwQflrbfeknXr1gVWrzivK/OoRUiht4Yt8+IAMkd/JanMC1iwYIGZ6sL0qeHDh5tpfbmEa7NEWea27FRrzon9B0/I2wM2yw0N8+Sh1ktl2NTohLvzAG/YsCFyIf407oRHESoUNYONcEBkHsUQf6byIPOoKe+Et2/cuNGsch0lkDkGA3mnc4sS5Jd8M60lasoM9Zy8J5vWQbn06NFDHnvsMbOLAouqZTMorrRv1PmoyZz+jH6N/i0MKF8MoocffljKli0ry5cvdz4pWGuCEHPWL8FQChL6MmRO35bNjrVMQG9F5rlmiCYDnZXpqeiwUXO6MwUdmcdPk6IOMKWjVq1aZk0Kns1cAsOcHStItox0W+AERua2lh+w5pz49dAJ6frdFrm71WKp9NoK+WH6bjly7KQcPHxSDhw+IQePnDSv4/v6k/mvibo4dvxUfqdwtiLAe3x2LP87sb/lmPNxbjcdyr8G33XhO7w+mp9OeJwbTp8/wXeSQQdL4xa1Tg3IMylqSpzKXGUeJcgzeVeZR4dUZc6Ido0aNeT222+XSZMmZX0d4f7Ju8o8eHB+ffbZZ2YqEItesrYLoEizewcLVLLw5aJFi8z7QaEyj2bbHlWZk/fCZI7RTiQTC9MSyZRrRrzK3M5zbs05gXOg+5Ctcvczi+X6BgvkpiZ5cnPThXJt/QVyVbW58veqc+Si/P+Nu6yRuSt/Nc4MHANMAXmw9RIp2ThPvhq7w5zH5eCREzJo4k4pnX+e+55bLOPm7zEOiPmrD0jrz9bLTU8vlMvzz3lVjYJ0fpX8/7XnS7veG2XFpkOyMj817bpG/lxhltR4a6UsXn/QOENctu8+Js9/sl7+WnG2lH91Wf759xonSLpQ0XmAEXzUICyMvNuq8LZQmUdX5lELfwVX5lHr1FXmiWXOSEzXrl1NGDDTOjA2sx3atajKnP4szOecRfjYLQEHBMduNB4RFM8++6wZvWV70aCj1VTm0WvbY2UeNV3GlXlh+iuRSuzgwXM5atSonNFzXZmTVObhYtE5cVI+GrZNrqozX/5YfpbUf3e1LNvwWzgo0RF9Ru0wDovr6i+QnsO3yb4Dx2Xa4v3y2CvL5NZmC2Xg+J1nOSf+/+2d/VOU1xXHf+8f0E5m2mlm+lP1h7Yy49QxKG+J00piVcBWdKrTJMXGAQSiaY0ZjLGk+SGZ0ladSmuc0YiNHdraCM4EBwYUlJcFdoG1vPkOKq9KNTGmp8/nstsgLomN7D7wnPuduYM+z4Xdu99n7z333PM9p6xmUJLy/JJWGJSKhmEpPzcsa3YF5ds/bZLismuhnhPA8XCk8ob85sgVOdkwIjdG75mfP9gWkAXOa/76vcvSPzThBRwbvy8HT16XlIKAJOT65S/OaxOJ8WUQlnVoC/FnMSM8SqOsg8zecB4+6dECJnStsg5Cndl8WVmHHlhZx6XPDfGvqKiQxYsXmw0mSTC9sLnTLOtgPWNdY32LBQ4fPmzkHMXFxQ+EmNfX10tGRoZxUPB+or1x1izrCEt5NMo6qEaEDavNKTWdrCMMruMURFKFtCpWMq9og805Uh6NFQbVyzqS8gKSXhiU8rMPfwBIPIreu2yiKfL39klz17hUtYxKxs6gLP0C58SqHZ3yYfOIBPrG5bUDF+XrGefkq6l1Eve8T556qVWWv9JunBI3Rh584AaG78m+f/TLghedftltcqJ+SD51DI4z7bflR692SOIWv7xbcV0GR7/85IQnisVN2wSH4cYXnElemxGnlXMQ5lybEcd4GbflXA/CnGszZADP+XScM99j6JBjIikpyWwuvQLtnLOuRft0jecHrf/u3btNvoljx46F7kxsjKgakJqaap6vWMw5kznXZsvEivPZBni2nE/POdFLa9euNU7CU6dOecJ5Feacpo1zt/csrjsnUvID8uPXz8vJcw87J/oGPpLs4m4j8cj5Xa+0dIecE4VBSchpk/erbhqHRBh3Pr4vf6sZlIQtfkn9Zbt82DQiQ2P3jAOCCIjB0Xty2n9LfvZWlzz5k0b52rN18sRz9UYi8uaRK9JzbaJm9fCtT6Tw3YuS7Ly33D/0GPlI0eHLssjpt+mdbrl0/fFOgHnIWdy0PewgPHZtsJxbzjVB69gt55HHTnTBvn37ZP369aaSQiAQCN2Z+7CcR3/sbHTIKUHoeH5+vtTV1YXuiNTU1Mj27dslKytLysrKQlejD8u5vrFbzqcfOyftlPXdtGmTZGdnS0NDQ+jO3AbjpmmD299zV3NO7P17v8S92GJyS+z480XpH/os1B9ZR+mpm8ZBEJ/dJseqB00SSvJPrHi1Q773gk9KTgzInUnSiuClO5L9+x4jEyHK4Z91Q/LH4/2StMVvqoKUfDAQ6vkZ/lQ+IE+/HJC0ws4HHCTNXbdNnooFP/fJN52/R16MrHe6TZ6Jx+UqLOvQWq2D0Dg8kZqgvVoHnOOF1QSqFhD6q1HKQ4g7Y9co62DcSBzcWtTdAs85Y49UrYPrnKolJyfLmTNnQle9ARwvzG+2Wkf0QCj9tm3bJDMzU44ePfo/qRw2BVE46enp5ifJVmMB1jI4t9U69ACb1VbriCzrCIP1r7CwUOLi4uTAgQNz3s4nSsZW61Ao63j7/Wvy3ed98sTqszJvQ5M8s3XCSZD+qw55usAvC3/RKllvd0t165iM3J4ILSFXBU6L57Z3yLcyGyU+q0XSnX+nv9YpmW+cl2ed3/1Gxjn54SsBqfSNyNi/70sFeSdeD8p3XvBJUm6bpO9w+jsNp8T3ndfI29NnkmZOloh88ul/5MTZYUlw+n8luVYS8/xGJjIT4CFnMde2QcdwY/LCeNW2oBMaBefaNugA410r54xbM+fajDjGq5VzxszYp4aB4pjYv3+/rFu3Tnbu3GmMey8hzDnPvDbAOetatEN/m5qajGNr9erVDzggyO2yceNGk8eEUPJYOYdYy8Kca3NIYbfCubbNGpxjv9Is59OD5Jh8JwsKCqS6unpO73Mmc67NfnV7n+qac4LKG8gnrtz8WK467dKNj0zFjOZ/jUtD5y3xdY1LX/9dU20jEvjdjotO/+Btp7/TnJ+91+6a61cHnb/ptMm/e+vOfem+eleazk/0pfEavc5rkNsiEmr9Y8apkZjvl9/+9ar5mxYWFhYWFhaPhuPHj8uKFStMOD4lHt3SsFrMTfT09JgKL2vWrDEVXtgoACJViKJAKsSzRT8LCwt3QTQV38vwnK8tctRiZuCac2K2YnR8wunxQf2w5O/tNck13yq9IiPO9ZkCma05TXIrXMYt4HnEoNAYIoUHEs61SXk4YeB0C861RQpxskbor0YpD2HXjD28kdACxsu4Mci0na7xnE/mPPzd37VrlyxatEhKSkrMda+B6AHmN41SHtYz1jXWt2iBjQ6SIJJhtre3h66KkQdROjQ3N1dqa2tjOtewlsE5z7e2E1XsVjiPVYWW2QJsVqK+sGG1RQQS4g/njyrloS8SrOXLl0tVVdWctfdxpCPdomlzqiPhgUe4dwPWOTEFbb3jpkLI2jfOmyScVP+4PqWih4WFhYWFhcXnA93xhg0bjJyjpaUldNVbwGjFkGODrs05gUMA4zVajmc+VypwIOcoLy8PXZ1wCJWWlsrKlStlz549MXcQsDnlvbFBt5zrAJyzOYdzbQ4p5Etw/qhyRT4jnIqUjN66daunEiBbxAbWOeECyC6dlpYmS5culfj4eFUtISHBtCVLlkS879XGeBm3Rs4Zs+U8ch+vNsu55XzhwoUyb948U/eeE29t0XIWjwdOqXFMIOcgaqK7u9tcZ5N48OBBczKbl5cnp0+fNtctLCxmB3DY4aA4dOiQJCYmyvz58x9aL+ZKY02jRbrn5cZ6TuTLZKdwLGGdEy6AkF+fzyednZ0m+6+WRohQa2urNDc3y4ULFyL28Wrr6uqSxsZG6ejoiHjfq40w77a2NsM5icwi9fFqw5gmkRsbs0j3vdrgnNwCjB0deKQ+Xm2Ml3FzUsTnEKmPVxvPOWPnuef/hL2z1nk9USSniYT9ImvRdorOaSo8I2GbCXAazzNTWVlpEuqlpKRIUVGRkY/QWEMpRbts2TLZvHmzBINBV06xeZ9wznvVdopOxMhMcj5XgHMVSQfyLW2yDiJG4Pz/lW+FI4z4rkxdL+ZCo1oFEX80/h2pj1cbcyt2O9y5AeuccAEYaxgy2iZ3DDcmKowMbZM7xgycR1ObO1uhmXPGrU2bCzBmGLu203LGq5VzxszYtYV7wzlzO/OcNucEnLNBf9Rw7y9CfX29rFq1ypzcES3BIQ7AWM7JyTG5S8gxgfPCzVKWSHngHOeMNs6xYTQ4HacCzpnf4FybQ4q9CpzHMq/LbAA8w7dGzuHazX2qdU5YWFhYWFhYWFhYWFhYWFi4CJH/AnIjQPiqq41aAAAAAElFTkSuQmCC;" vertex="1" parent="1">
          <mxGeometry x="50" y="50" width="1063" height="291" as="geometry" />
        </mxCell>
        <mxCell id="HBajahwB6_Djtj9Em0qe-4" value="" style="group" vertex="1" connectable="0" parent="1">
          <mxGeometry x="551.5" y="160" width="60" height="230" as="geometry" />
        </mxCell>
        <mxCell id="HBajahwB6_Djtj9Em0qe-2" value="" style="endArrow=none;dashed=1;html=1;rounded=0;strokeColor=light-dark(#ff0000, #ededed);startSize=9;sourcePerimeterSpacing=0;endSize=13;dashPattern=8 8;" edge="1" parent="HBajahwB6_Djtj9Em0qe-4">
          <mxGeometry width="50" height="50" relative="1" as="geometry">
            <mxPoint x="29.409999999999968" y="200" as="sourcePoint" />
            <mxPoint x="29.409999999999968" as="targetPoint" />
          </mxGeometry>
        </mxCell>
        <mxCell id="HBajahwB6_Djtj9Em0qe-3" value="&lt;font style=&quot;color: rgb(255, 0, 0);&quot;&gt;t1&lt;/font&gt;" style="text;html=1;align=center;verticalAlign=middle;whiteSpace=wrap;rounded=0;" vertex="1" parent="HBajahwB6_Djtj9Em0qe-4">
          <mxGeometry y="200" width="60" height="30" as="geometry" />
        </mxCell>
        <mxCell id="HBajahwB6_Djtj9Em0qe-5" value="" style="group" vertex="1" connectable="0" parent="1">
          <mxGeometry x="615" y="160" width="60" height="230" as="geometry" />
        </mxCell>
        <mxCell id="HBajahwB6_Djtj9Em0qe-6" value="" style="endArrow=none;dashed=1;html=1;rounded=0;strokeColor=light-dark(#ff0000, #ededed);startSize=9;sourcePerimeterSpacing=0;endSize=13;dashPattern=8 8;" edge="1" parent="HBajahwB6_Djtj9Em0qe-5">
          <mxGeometry width="50" height="50" relative="1" as="geometry">
            <mxPoint x="29.409999999999968" y="200" as="sourcePoint" />
            <mxPoint x="29.409999999999968" as="targetPoint" />
          </mxGeometry>
        </mxCell>
        <mxCell id="HBajahwB6_Djtj9Em0qe-7" value="&lt;font style=&quot;color: rgb(255, 0, 0);&quot;&gt;t2&lt;/font&gt;" style="text;html=1;align=center;verticalAlign=middle;whiteSpace=wrap;rounded=0;" vertex="1" parent="HBajahwB6_Djtj9Em0qe-5">
          <mxGeometry y="200" width="60" height="30" as="geometry" />
        </mxCell>
        <mxCell id="HBajahwB6_Djtj9Em0qe-8" value="" style="group" vertex="1" connectable="0" parent="1">
          <mxGeometry x="928" y="163" width="60" height="230" as="geometry" />
        </mxCell>
        <mxCell id="HBajahwB6_Djtj9Em0qe-9" value="" style="endArrow=none;dashed=1;html=1;rounded=0;strokeColor=light-dark(#ff0000, #ededed);startSize=9;sourcePerimeterSpacing=0;endSize=13;dashPattern=8 8;" edge="1" parent="HBajahwB6_Djtj9Em0qe-8">
          <mxGeometry width="50" height="50" relative="1" as="geometry">
            <mxPoint x="29.409999999999968" y="200" as="sourcePoint" />
            <mxPoint x="29.409999999999968" as="targetPoint" />
          </mxGeometry>
        </mxCell>
        <mxCell id="HBajahwB6_Djtj9Em0qe-10" value="&lt;font style=&quot;color: rgb(255, 0, 0);&quot;&gt;t3&lt;/font&gt;" style="text;html=1;align=center;verticalAlign=middle;whiteSpace=wrap;rounded=0;" vertex="1" parent="HBajahwB6_Djtj9Em0qe-8">
          <mxGeometry y="200" width="60" height="30" as="geometry" />
        </mxCell>
      </root>
    </mxGraphModel>
  </diagram>
</mxfile>
